<?xml version="1.0" encoding="UTF-8" standalone="no"?>
<!-- Created with Inkscape (http://www.inkscape.org/) -->

<svg
   width="200"
   height="100"
   viewBox="0 0 52.916665 26.458334"
   version="1.1"
   id="svg5"
   inkscape:version="1.1 (c68e22c387, 2021-05-23)"
   sodipodi:docname="logo.svg"
   xmlns:inkscape="http://www.inkscape.org/namespaces/inkscape"
   xmlns:sodipodi="http://sodipodi.sourceforge.net/DTD/sodipodi-0.dtd"
   xmlns="http://www.w3.org/2000/svg"
   xmlns:svg="http://www.w3.org/2000/svg">
  <sodipodi:namedview
     id="namedview7"
     pagecolor="#ffffff"
     bordercolor="#666666"
     borderopacity="1.0"
     inkscape:pageshadow="2"
     inkscape:pageopacity="0.0"
     inkscape:pagecheckerboard="0"
     inkscape:document-units="mm"
     showgrid="false"
     units="px"
     inkscape:zoom="6.3286196"
     inkscape:cx="107.05336"
     inkscape:cy="141.81608"
     inkscape:window-width="1920"
     inkscape:window-height="1051"
     inkscape:window-x="-9"
     inkscape:window-y="-9"
     inkscape:window-maximized="1"
     inkscape:current-layer="layer1" />
  <defs
     id="defs2" />
  <g
     inkscape:label="Layer 1"
     inkscape:groupmode="layer"
     id="layer1">
    <g
       id="g1228"
       transform="matrix(0.21768188,0,0,0.21768188,25.280396,-12.337236)"
       inkscape:export-filename="C:\xampp\htdocs\jemcapital\logo.png"
       inkscape:export-xdpi="91.18"
       inkscape:export-ydpi="91.18">
      <path
         style="fill:#26d2db;stroke-width:0.264583"
         d="m 1.1833879,137.08522 0.1315746,-4.55152 0.073639,4.34562 c 0.0405,2.3901 -0.018706,4.43828 -0.1315746,4.55152 -0.1128686,0.11324 -0.146005,-1.84229 -0.073639,-4.34562 z M 69.02454,137.2962 c 2.64e-4,-2.32833 0.04081,-3.24541 0.08995,-2.03796 0.04914,1.20746 0.04886,3.11246 -5.3e-4,4.23334 -0.04947,1.12088 -0.08967,0.13296 -0.08934,-2.19538 z m -1.586339,-0.52916 c -2.64e-4,-2.47386 0.03947,-3.5215 0.08837,-2.3281 0.04891,1.1934 0.04916,3.21746 5.29e-4,4.49792 -0.0486,1.28045 -0.08862,0.30403 -0.08893,-2.16982 z m -82.278528,1.90282 c -0.07305,-0.19037 -0.09492,-1.76795 -0.04859,-3.50573 l 0.08423,-3.15959 0.0569,3.35503 c 0.05508,3.24808 0.07587,3.35869 0.652206,3.4697 l 0.595313,0.11466 -0.603615,0.036 c -0.331992,0.0198 -0.663388,-0.11973 -0.736442,-0.3101 z m 4.068572,0.1654 c 0.190995,-0.0764 0.419201,-0.067 0.507119,0.0209 0.08792,0.0879 -0.06835,0.15045 -0.347265,0.13897 -0.308227,-0.0127 -0.37092,-0.0754 -0.159854,-0.15986 z m 3.6876306,0.005 c 0.1819011,-0.0734 0.4795573,-0.0734 0.6614584,0 0.181901,0.0734 0.033073,0.13345 -0.3307292,0.13345 -0.3638021,0 -0.5126302,-0.06 -0.3307292,-0.13345 z m 3.9852865,-0.005 c 0.1909948,-0.0764 0.4192006,-0.067 0.507119,0.0209 0.087918,0.0879 -0.068353,0.15045 -0.3472657,0.13897 -0.3082263,-0.0127 -0.3709193,-0.0754 -0.1598533,-0.15986 z m 13.6346619,-0.22755 c -0.08617,-0.22456 -0.09756,-0.46741 -0.02529,-0.53966 0.07226,-0.0723 0.194881,0.11147 0.2725,0.40829 0.164875,0.63048 -0.01831,0.72783 -0.247201,0.13137 z m 6.557293,-0.0296 c 0.264703,-0.31895 0.254752,-0.4431 -0.05102,-0.63659 -0.436319,-0.27609 -0.222858,-0.32391 0.392248,-0.0879 0.593603,0.22778 0.518782,0.80979 -0.125773,0.97835 -0.458864,0.11999 -0.492677,0.0802 -0.21545,-0.25389 z m 6.306371,0.0526 c 0.175865,-0.21191 0.251256,-0.49612 0.167534,-0.63159 -0.08372,-0.13546 0.04789,-0.22997 0.292475,-0.21002 0.244584,0.02 0.598734,-0.26139 0.787004,-0.62519 0.224107,-0.43306 0.343651,-0.51277 0.346204,-0.23083 0.0021,0.23684 -0.174694,0.57884 -0.392975,0.76 -0.218281,0.18116 -0.396875,0.48065 -0.396875,0.66555 0,0.18489 -0.18833,0.40844 -0.418515,0.49677 -0.643763,0.24703 -0.733073,0.19489 -0.384852,-0.22469 z m 5.251675,0.20455 c 0.190994,-0.0764 0.4192,-0.067 0.507118,0.0209 0.08792,0.0879 -0.06835,0.15045 -0.347265,0.13897 -0.308227,-0.0127 -0.37092,-0.0754 -0.159853,-0.15986 z m 3.439583,0 c 0.190995,-0.0764 0.4192,-0.067 0.507119,0.0209 0.08792,0.0879 -0.06835,0.15045 -0.347266,0.13897 -0.308226,-0.0127 -0.370919,-0.0754 -0.159853,-0.15986 z m 9.723911,-0.16141 c 0.09936,-0.26093 0.247304,-0.40778 0.328766,-0.32631 0.08146,0.0815 1.69e-4,0.29495 -0.180652,0.47443 -0.261308,0.25936 -0.291698,0.22897 -0.148114,-0.14812 z m 4.419796,0.15879 c 0.257432,-0.0671 0.614619,-0.0627 0.79375,0.01 0.179131,0.0725 -0.03149,0.12736 -0.468056,0.12197 -0.436562,-0.005 -0.583126,-0.0647 -0.325694,-0.13178 z m 7.981471,-0.16278 c -0.07305,-0.19037 -0.09492,-1.76795 -0.04859,-3.50573 l 0.08423,-3.15959 0.0569,3.35503 c 0.05508,3.24808 0.07587,3.35869 0.652206,3.4697 l 0.595313,0.11466 -0.603616,0.036 c -0.331991,0.0198 -0.663387,-0.11973 -0.736441,-0.3101 z m 24.096097,0.0846 c -0.09269,-0.14998 0.01352,-0.19434 0.248967,-0.10398 0.45837,0.17589 0.542235,0.36554 0.16165,0.36554 -0.136932,0 -0.321712,-0.1177 -0.410617,-0.26156 z m 18.312747,0.0891 c 0.56194,-0.12134 0.591274,-0.26732 0.673311,-3.35063 l 0.08577,-3.22376 -0.01185,3.30729 -0.01185,3.30729 -0.661459,0.0433 c -0.567679,0.0372 -0.578159,0.0254 -0.07392,-0.0835 z m 3.431362,0.001 c 0.3572,-0.0776 0.62316,-0.3744 0.69368,-0.77422 0.0995,-0.56429 0.1102,-0.5536 0.0821,0.0825 -0.0257,0.58192 -0.16703,0.7397 -0.69369,0.77421 -0.551394,0.0361 -0.565062,0.0224 -0.0821,-0.0824 z m 13.90662,-0.011 c 0.25466,-0.0665 0.67138,-0.0665 0.92604,0 0.25467,0.0666 0.0463,0.121 -0.46302,0.121 -0.50932,0 -0.71768,-0.0545 -0.46302,-0.121 z M -9.8283378,135.841 c 0,-1.67349 0.04296,-2.3581 0.095467,-1.52136 0.052506,0.83675 0.052506,2.20596 0,3.04271 -0.052507,0.83674 -0.095467,0.15213 -0.095467,-1.52135 z m 7.5712639,0.21053 c -0.071885,-1.55769 -0.036856,-2.73781 0.077838,-2.6225 0.1146943,0.11531 0.1735085,1.38979 0.1306963,2.83217 l -0.07784,2.6225 z m 7.0130538,2.17072 c 0.2633901,-0.29105 0.5384218,-0.52917 0.6111822,-0.52917 0.072761,0 -0.083209,0.23812 -0.3465988,0.52917 -0.2633901,0.29104 -0.5384218,0.52916 -0.6111822,0.52916 -0.072761,0 0.083209,-0.23812 0.3465988,-0.52916 z m 3.2872654,-0.19844 -0.641432,-0.72761 0.7276042,0.64144 c 0.6800559,0.59951 0.8489394,0.81377 0.641432,0.81377 -0.047392,0 -0.374814,-0.32742 -0.7276042,-0.7276 z m 13.6351887,0.44542 c -0.09592,-0.15521 -0.117655,-0.33894 -0.0483,-0.40829 0.06935,-0.0694 0.196601,0.0576 0.282774,0.28219 0.178906,0.46622 0.0264,0.54823 -0.234474,0.1261 z m 34.008711,-3.07896 c -0.07214,-1.92139 -0.03804,-3.39989 0.07577,-3.28556 0.113816,0.11433 0.172839,1.68637 0.131162,3.49343 l -0.07577,3.28556 z m 27.374623,3.07896 c -0.09592,-0.15521 -0.117655,-0.33894 -0.0483,-0.40829 0.06935,-0.0694 0.196602,0.0576 0.282774,0.28219 0.178906,0.46622 0.0264,0.54823 -0.234474,0.1261 z m 4.007662,-0.28722 c 0.275625,-0.38593 0.554051,-0.65051 0.618726,-0.58796 0.06468,0.0625 -0.160833,0.37831 -0.501132,0.70169 l -0.618728,0.58796 z m -98.484318,-2.73789 c 5.29e-4,-1.74625 0.04334,-2.42619 0.09516,-1.51099 0.05181,0.91521 0.05139,2.34396 -0.0011,3.175 -0.05234,0.83105 -0.09473,0.0822 -0.09421,-1.66401 z m 7.6672918,0.66146 c 0,-1.38245 0.044593,-1.948 0.099097,-1.25677 0.054504,0.69122 0.054504,1.82232 0,2.51354 -0.054504,0.69122 -0.099097,0.12568 -0.099097,-1.25677 z m 33.3431252,-0.66146 c 5.29e-4,-1.74625 0.04334,-2.42619 0.09516,-1.51099 0.05181,0.91521 0.05139,2.34396 -0.0011,3.175 -0.05234,0.83105 -0.09473,0.0822 -0.09421,-1.66401 z m 3.888632,2.62379 c 0.0127,-0.30823 0.07539,-0.37092 0.15985,-0.15986 0.07643,0.191 0.06703,0.4192 -0.02087,0.50712 -0.08792,0.0879 -0.150453,-0.0683 -0.138965,-0.34726 z m 10.669598,-0.17639 -0.504029,-0.59532 0.595313,0.50403 c 0.559446,0.47366 0.715761,0.6866 0.504029,0.6866 -0.05021,0 -0.318098,-0.26789 -0.595313,-0.59531 z m 15.767847,0.34634 c 0,-0.13693 0.1177,-0.32171 0.261554,-0.41062 0.149981,-0.0927 0.194336,0.0135 0.103983,0.24897 -0.175892,0.45837 -0.365537,0.54224 -0.365537,0.16165 z M 27.953247,135.2613 c -0.02543,-1.70128 0.04307,-3.14883 0.152212,-3.21678 0.109141,-0.0679 0.166362,0.84777 0.127159,2.03491 -0.128447,3.88957 -0.232341,4.32908 -0.279371,1.18187 z m 11.231253,2.55384 c -0.09074,-0.23646 -0.157432,-0.56901 -0.148206,-0.73901 0.0092,-0.17 0.130844,-0.0239 0.270267,0.32463 0.139422,0.34855 0.206115,0.68111 0.148206,0.73902 -0.05791,0.0579 -0.17953,-0.0882 -0.270267,-0.32464 z m 1.681798,-0.26075 c -0.486384,-0.58606 -0.209611,-0.65343 0.336037,-0.0818 0.254661,0.26679 0.358536,0.48507 0.230833,0.48507 -0.127701,0 -0.382794,-0.18147 -0.56687,-0.40327 z m 36.360378,-0.19204 -0.504028,-0.59531 0.595312,0.50403 c 0.327422,0.27721 0.595313,0.5451 0.595313,0.59531 0,0.21173 -0.212934,0.0554 -0.686597,-0.50403 z m 23.969934,0.33073 c 0,-0.14552 0.12609,-0.26458 0.2802,-0.26458 0.1541,0 0.20661,0.11906 0.11667,0.26458 -0.0899,0.14552 -0.21603,0.26458 -0.2802,0.26458 -0.0642,0 -0.11667,-0.11906 -0.11667,-0.26458 z m -66.145838,-0.0999 c 0,-0.0549 0.208359,-0.2633 0.463021,-0.46302 0.419645,-0.32911 0.429003,-0.31975 0.0999,0.0999 -0.345644,0.44073 -0.562917,0.58088 -0.562917,0.36312 z m 50.800001,0 c 0,-0.0549 0.208359,-0.2633 0.46302,-0.46302 0.419646,-0.32911 0.429004,-0.31975 0.0999,0.0999 -0.345644,0.44073 -0.562917,0.58088 -0.562917,0.36312 z m 4.183724,-0.0808 c 0.190994,-0.0764 0.4192,-0.067 0.507119,0.0209 0.08792,0.0879 -0.06835,0.15046 -0.347266,0.13897 -0.308226,-0.0127 -0.370919,-0.0754 -0.159853,-0.15985 z M 37.31674,137.08635 c 0.09936,-0.26093 0.247304,-0.40778 0.328766,-0.32631 0.08146,0.0815 1.7e-4,0.29495 -0.180652,0.47443 -0.261308,0.25936 -0.291698,0.22897 -0.148114,-0.14812 z m 7.782891,-0.0611 c -0.184076,-0.2218 -0.283443,-0.45451 -0.220818,-0.51714 0.06263,-0.0626 0.259196,0.11885 0.436821,0.40327 0.384125,0.61508 0.256019,0.68262 -0.216003,0.11387 z m -31.859974,-0.46804 c 0.09936,-0.26094 0.247303,-0.40778 0.328766,-0.32632 0.08146,0.0815 1.69e-4,0.29495 -0.180652,0.47443 -0.261308,0.25936 -0.291698,0.22897 -0.148114,-0.14811 z m 92.075003,0 c 0.0994,-0.26094 0.2473,-0.40778 0.32876,-0.32632 0.0815,0.0815 1.7e-4,0.29495 -0.18065,0.47443 -0.26131,0.25936 -0.2917,0.22897 -0.14811,-0.14811 z m -28.652242,-0.98078 c 0,-0.65484 0.0516,-0.92273 0.114662,-0.59531 0.06307,0.32742 0.06307,0.8632 0,1.19062 -0.06306,0.32743 -0.114662,0.0595 -0.114662,-0.59531 z M 4.1612442,135.44412 c 0.00294,-0.58208 0.057121,-0.78905 0.1204066,-0.45994 0.063286,0.32912 0.060883,0.80537 -0.00534,1.05834 -0.066222,0.25296 -0.1180041,-0.0163 -0.1150666,-0.5984 z m 13.4270278,0.5869 c -0.551048,-0.44753 -0.573244,-1.21035 -0.03109,-1.06857 0.24725,0.0647 0.427966,0.3855 0.427966,0.75981 0,0.35635 0,0.64412 0,0.63949 0,-0.005 -0.178594,-0.15346 -0.396875,-0.33073 z m 6.35,0 c -0.551048,-0.44753 -0.573244,-1.21035 -0.03109,-1.06857 0.24725,0.0647 0.427966,0.3855 0.427966,0.75981 0,0.35635 0,0.64412 0,0.63949 0,-0.005 -0.178594,-0.15346 -0.396875,-0.33073 z m -15.2942532,-0.5869 c 0.0054,-0.43656 0.064691,-0.58313 0.1317731,-0.32569 0.067082,0.25743 0.062672,0.61462 -0.00982,0.79375 -0.072477,0.17913 -0.1273625,-0.0315 -0.1219703,-0.46806 z m 3.1651942,0.13229 c 0,-0.3638 0.06006,-0.51263 0.133454,-0.33073 0.0734,0.1819 0.0734,0.47956 0,0.66146 -0.0734,0.1819 -0.133454,0.0331 -0.133454,-0.33073 z m 7.332809,0.0661 c -0.329108,-0.41965 -0.319749,-0.42901 0.0999,-0.0999 0.440729,0.34565 0.580887,0.56292 0.363124,0.56292 -0.05494,0 -0.2633,-0.20836 -0.46302,-0.46302 z m 19.898389,0.0441 c 0.0127,-0.30823 0.07539,-0.37092 0.159851,-0.15986 0.07643,0.191 0.06703,0.4192 -0.02088,0.50712 -0.08792,0.0879 -0.150453,-0.0683 -0.138965,-0.34726 z m 8.516959,0.23556 c 0.257431,-0.0671 0.614619,-0.0627 0.79375,0.01 0.179131,0.0725 -0.03149,0.12736 -0.468056,0.12197 -0.436563,-0.005 -0.583126,-0.0647 -0.325694,-0.13177 z m 14.182569,-0.27966 c -0.329108,-0.41965 -0.319749,-0.42901 0.0999,-0.0999 0.44073,0.34565 0.580887,0.56292 0.363125,0.56292 -0.05494,0 -0.263301,-0.20836 -0.463021,-0.46302 z m 31.75,0 c -0.329107,-0.41965 -0.319749,-0.42901 0.0999,-0.0999 0.44073,0.34565 0.580888,0.56292 0.363125,0.56292 -0.05494,0 -0.2633,-0.20836 -0.463021,-0.46302 z M 43.29463,135.31183 c 0,-0.3638 0.06006,-0.51263 0.133454,-0.33073 0.0734,0.1819 0.0734,0.47956 0,0.66146 -0.0734,0.1819 -0.133454,0.0331 -0.133454,-0.33073 z m 30.427084,0 c 0,-0.3638 0.06005,-0.51263 0.133453,-0.33073 0.0734,0.1819 0.0734,0.47956 0,0.66146 -0.0734,0.1819 -0.133453,0.0331 -0.133453,-0.33073 z m 12.129059,-0.26458 c -0.238467,-0.15411 -0.2711,-0.2581 -0.08176,-0.26054 0.173313,-0.002 0.388699,0.11501 0.478637,0.26054 0.203014,0.32848 0.111421,0.32848 -0.396875,0 z m -72.474946,-0.41893 c 0.0127,-0.30822 0.07539,-0.37092 0.159851,-0.15985 0.07643,0.19099 0.06703,0.4192 -0.02088,0.50712 -0.08792,0.0879 -0.150452,-0.0684 -0.138964,-0.34727 z m 44.255831,0.0106 c -0.08617,-0.22456 -0.09756,-0.46741 -0.02529,-0.53966 0.07225,-0.0723 0.194881,0.11147 0.2725,0.40829 0.164875,0.63048 -0.01831,0.72783 -0.247201,0.13137 z m 23.477503,-0.0106 c 0.0127,-0.30822 0.07539,-0.37092 0.159851,-0.15985 0.07643,0.19099 0.06703,0.4192 -0.02088,0.50712 -0.08792,0.0879 -0.150452,-0.0684 -0.138964,-0.34727 z m 8.272497,0.0106 c -0.08617,-0.22456 -0.09756,-0.46741 -0.02529,-0.53966 0.07225,-0.0723 0.194882,0.11147 0.2725,0.40829 0.164875,0.63048 -0.01831,0.72783 -0.2472,0.13137 z m 16.069172,-0.0106 c 0.0127,-0.30822 0.0754,-0.37092 0.15985,-0.15985 0.0764,0.19099 0.067,0.4192 -0.0209,0.50712 -0.0879,0.0879 -0.15045,-0.0684 -0.13896,-0.34727 z m -90.508392,-0.75608 c 0,-0.35522 0.09752,-0.70612 0.21671,-0.77978 0.11919,-0.0737 0.165206,0.21696 0.102261,0.64584 -0.138784,0.94559 -0.318971,1.02125 -0.318971,0.13394 z m 8.041384,0.27034 c -0.07925,-0.20653 0.05381,-0.67754 0.295693,-1.0467 0.241882,-0.36916 0.362966,-0.7955 0.269073,-0.94742 -0.09389,-0.15192 0.0011,-0.27621 0.210934,-0.27621 0.209905,0 0.438745,0.29869 0.508532,0.66377 0.09463,0.49504 0.04614,0.59675 -0.190775,0.40013 -0.379296,-0.31479 -1.101982,0.82948 -0.816057,1.29212 0.09851,0.15939 0.108817,0.28981 0.02291,0.28981 -0.08592,0 -0.221052,-0.16898 -0.300303,-0.3755 z m 21.856533,0.12653 c 0,-0.13693 0.1177,-0.32171 0.261554,-0.41062 0.149982,-0.0927 0.194337,0.0135 0.103984,0.24897 -0.175892,0.45837 -0.365538,0.54224 -0.365538,0.16165 z m -23.527028,-0.43454 c 0.0127,-0.30822 0.07539,-0.37092 0.159851,-0.15985 0.07643,0.19099 0.06703,0.4192 -0.02088,0.50712 -0.08792,0.0879 -0.150452,-0.0683 -0.138964,-0.34727 z m 26.139112,-0.30868 c -0.329108,-0.41964 -0.319749,-0.429 0.0999,-0.0999 0.440729,0.34565 0.580887,0.56292 0.363124,0.56292 -0.05494,0 -0.2633,-0.20836 -0.46302,-0.46302 z m 23.8125,0 c -0.329107,-0.41964 -0.319749,-0.429 0.0999,-0.0999 0.44073,0.34565 0.580887,0.56292 0.363125,0.56292 -0.05494,0 -0.2633,-0.20836 -0.463021,-0.46302 z m 5.920729,0.0453 c 0.516118,-0.61307 0.605034,-1.31985 0.191823,-1.52477 -0.149159,-0.074 -0.119393,-0.10433 0.06615,-0.0675 0.587801,0.11679 0.519584,1.09051 -0.11403,1.62767 l -0.606959,0.51457 z M 7.93098,132.93058 c 0.26339,-0.29104 0.5384218,-0.52917 0.6111822,-0.52917 0.07276,0 -0.083209,0.23813 -0.3465989,0.52917 -0.2633901,0.29104 -0.5384218,0.52917 -0.6111822,0.52917 -0.07276,0 0.083209,-0.23813 0.3465989,-0.52917 z m 9.125765,0.0607 c 0.160277,-0.33043 0.21935,-0.71739 0.131273,-0.8599 -0.08808,-0.14251 0.01159,-0.25911 0.221504,-0.25911 0.209904,0 0.440272,0.30668 0.511926,0.68151 0.09028,0.47226 0.0457,0.59695 -0.145158,0.40609 -0.190863,-0.19087 -0.388363,-0.13609 -0.643199,0.17837 -0.327025,0.40355 -0.335482,0.38727 -0.07635,-0.14696 z m 1.523714,0.29326 c 0.181901,-0.0734 0.479558,-0.0734 0.661459,0 0.181901,0.0734 0.03307,0.13345 -0.33073,0.13345 -0.363802,0 -0.51263,-0.0601 -0.330729,-0.13345 z m 6.35,0 c 0.181901,-0.0734 0.479558,-0.0734 0.661459,0 0.181901,0.0734 0.03307,0.13345 -0.330729,0.13345 -0.363803,0 -0.512631,-0.0601 -0.33073,-0.13345 z m 8.624115,-0.23306 c -0.08617,-0.22456 -0.08243,-0.48253 0.0083,-0.57326 0.09074,-0.0907 0.164979,0.0235 0.164979,0.25394 0,0.23041 0.148828,0.47898 0.330729,0.55238 0.259043,0.10452 0.257244,0.13798 -0.0083,0.15434 -0.186471,0.0115 -0.409538,-0.16284 -0.495708,-0.3874 z m 10.227448,0.30839 c 0,-0.0549 0.208359,-0.2633 0.463021,-0.46302 0.419645,-0.32911 0.429003,-0.31975 0.0999,0.0999 -0.345644,0.44073 -0.562917,0.58089 -0.562917,0.36313 z m 17.412891,-0.0808 c 0.190995,-0.0764 0.419201,-0.067 0.507119,0.0209 0.08792,0.0879 -0.06835,0.15045 -0.347266,0.13897 -0.308226,-0.0127 -0.370919,-0.0754 -0.159853,-0.15986 z m 40.216667,0 c 0.19099,-0.0764 0.4192,-0.067 0.50712,0.0209 0.0879,0.0879 -0.0683,0.15045 -0.34727,0.13897 -0.30822,-0.0127 -0.37092,-0.0754 -0.15985,-0.15986 z m 12.43859,-0.52681 c 0.11291,-0.55376 0.17944,-0.62029 0.25654,-0.25654 0.0573,0.27012 -0.0114,0.60657 -0.15244,0.74767 -0.16566,0.16566 -0.20254,-0.008 -0.1041,-0.49113 z m 0.80644,0.24452 c -0.32911,-0.41964 -0.31975,-0.429 0.0999,-0.0999 0.44073,0.34564 0.58089,0.56292 0.36313,0.56292 -0.0549,0 -0.2633,-0.20836 -0.46302,-0.46303 z m 1.7284,-0.13229 -0.50403,-0.59531 0.59531,0.50403 c 0.32743,0.27721 0.59532,0.5451 0.59532,0.59531 0,0.21173 -0.21294,0.0554 -0.6866,-0.50403 z M 4.8545214,132.73214 c -0.3291073,-0.41964 -0.319749,-0.429 0.099896,-0.0999 0.4407297,0.34565 0.5808875,0.56292 0.3631248,0.56292 -0.054941,0 -0.2633001,-0.20836 -0.4630208,-0.46302 z m 75.4062506,0 c -0.329107,-0.41964 -0.319749,-0.429 0.0999,-0.0999 0.44073,0.34565 0.580888,0.56292 0.363125,0.56292 -0.05494,0 -0.2633,-0.20836 -0.463021,-0.46302 z m 20.448438,-0.0661 c 0,-0.36381 0.0601,-0.51264 0.13346,-0.33073 0.0734,0.1819 0.0734,0.47955 0,0.66145 -0.0734,0.18191 -0.13346,0.0331 -0.13346,-0.33072 z m 3.89323,0.0661 c -0.32911,-0.41964 -0.31975,-0.429 0.0999,-0.0999 0.44073,0.34565 0.58088,0.56292 0.36312,0.56292 -0.0549,0 -0.2633,-0.20836 -0.46302,-0.46302 z m -94.137029,-0.22048 c 0.0127,-0.30823 0.07539,-0.37092 0.15985,-0.15986 0.07643,0.191 0.06703,0.4192 -0.02088,0.50712 -0.08792,0.0879 -0.150453,-0.0684 -0.138965,-0.34726 z m 14.994215,-0.15435 c -0.254661,-0.26678 -0.358537,-0.48506 -0.230833,-0.48506 0.266848,0 0.954,0.76522 0.797703,0.88833 -0.05712,0.045 -0.312209,-0.13648 -0.56687,-0.40327 z m 21.253702,0.15435 c 0.0127,-0.30823 0.07539,-0.37092 0.15985,-0.15986 0.07643,0.191 0.06703,0.4192 -0.02088,0.50712 -0.08792,0.0879 -0.150453,-0.0684 -0.138965,-0.34726 z m 31.464528,0.0377 c 0,-0.20969 0.107958,-0.44798 0.239908,-0.52953 0.131951,-0.0815 0.177594,0.09 0.101433,0.38126 -0.161557,0.6178 -0.341341,0.69589 -0.341341,0.14827 z m -83.8729179,0.0168 c 0,-0.0549 0.2083594,-0.2633 0.4630209,-0.46302 0.419645,-0.3291 0.4290033,-0.31975 0.099896,0.0999 -0.3456438,0.44073 -0.562917,0.58089 -0.562917,0.36313 z M 19.059056,132.2607 c -0.282474,-0.21365 -0.38635,-0.38845 -0.230833,-0.38845 0.155514,0 0.430975,0.17859 0.612132,0.39687 0.412009,0.49644 0.282401,0.49358 -0.381299,-0.008 z m -9.4082843,-0.12387 c -0.3391694,-0.21919 -0.3295518,-0.25707 0.066146,-0.26053 0.2546615,-0.002 0.4630203,0.11501 0.4630203,0.26053 0,0.32269 -0.02984,0.32269 -0.5291663,0 z m 105.3041683,0 c -0.61575,-0.1972 -0.6214,-0.21366 -0.0818,-0.23821 0.31883,-0.0145 0.65328,0.0927 0.74322,0.23821 0.0899,0.14552 0.12673,0.25271 0.0818,0.23821 -0.045,-0.0145 -0.37942,-0.1217 -0.74322,-0.23821 z m -132.68667,-0.26156 c -0.0927,-0.14998 0.01352,-0.19433 0.248967,-0.10398 0.45837,0.17589 0.542235,0.36554 0.16165,0.36554 -0.136932,0 -0.321712,-0.1177 -0.410617,-0.26156 z m 137.617,0.0833 c 0.16507,-0.12022 0.36564,-0.4567 0.44573,-0.74774 0.11481,-0.41725 0.13527,-0.39366 0.0968,0.11156 -0.0269,0.35241 -0.22745,0.68889 -0.44573,0.74775 -0.26223,0.0707 -0.29505,0.0329 -0.0968,-0.11157 z m 1.78328,-0.20985 c -0.0819,-0.21348 -0.0876,-0.5409 -0.0126,-0.7276 0.075,-0.1867 0.14576,-0.0617 0.15725,0.2779 0.029,0.85598 0.64153,0.58585 0.84948,-0.3746 0.15919,-0.73522 0.16862,-0.73985 0.19844,-0.0972 0.0485,1.04531 -0.87211,1.75669 -1.19258,0.92154 z m -141.864115,-0.53789 c 0.0054,-0.43657 0.06469,-0.58313 0.131773,-0.3257 0.06708,0.25743 0.06267,0.61462 -0.0098,0.79375 -0.07248,0.17913 -0.127362,-0.0315 -0.12197,-0.46805 z m 1.027642,-0.022 c 0.0127,-0.30823 0.07539,-0.37092 0.15985,-0.15986 0.07643,0.191 0.06703,0.4192 -0.02088,0.50712 -0.08792,0.0879 -0.150453,-0.0684 -0.138965,-0.34726 z m 138.422343,-0.43882 c 0.0463,-0.5999 0.20688,-0.87016 0.53435,-0.89911 0.29796,-0.0263 0.32766,0.003 0.0817,0.0804 -0.21259,0.067 -0.45305,0.47157 -0.53436,0.89911 -0.14104,0.74165 -0.14479,0.73796 -0.0817,-0.0804 z m -133.085419,-0.22179 c 0.254661,-0.14833 0.472421,-0.47213 0.483909,-0.71956 0.01344,-0.28973 0.06945,-0.32898 0.157306,-0.11025 0.158337,0.3942 -0.369293,1.11931 -0.805903,1.10754 -0.164084,-0.004 -0.08997,-0.12941 0.164688,-0.27773 z m 41.968854,-0.15361 c -0.330936,-0.40043 -0.312259,-0.40771 0.210704,-0.0821 0.485536,0.30234 0.648374,0.2987 1.058333,-0.0236 0.443838,-0.34898 0.454028,-0.3421 0.12138,0.0821 -0.455782,0.58117 -0.923083,0.58911 -1.390417,0.0236 z m 26.05422,-0.23349 c -0.08617,-0.22456 -0.09756,-0.4674 -0.02529,-0.53966 0.07226,-0.0723 0.194882,0.11147 0.2725,0.40829 0.164875,0.63048 -0.01831,0.72784 -0.2472,0.13137 z m -73.959663,-0.30162 c 0.190995,-0.0764 0.4192,-0.067 0.507119,0.0209 0.08792,0.0879 -0.06835,0.15045 -0.347266,0.13896 -0.308226,-0.0127 -0.370919,-0.0754 -0.159853,-0.15985 z m 2.38125,0 c 0.190995,-0.0764 0.4192,-0.067 0.507119,0.0209 0.08792,0.0879 -0.06835,0.15045 -0.347266,0.13896 -0.308226,-0.0127 -0.370919,-0.0754 -0.159853,-0.15985 z m 139.435418,0 c 0.191,-0.0764 0.4192,-0.067 0.50712,0.0209 0.0879,0.0879 -0.0684,0.15045 -0.34727,0.13896 -0.30822,-0.0127 -0.37092,-0.0754 -0.15985,-0.15985 z m -137.004559,-0.33281 c 0,-0.13693 0.1177,-0.32171 0.261554,-0.41062 0.149982,-0.0927 0.194337,0.0135 0.103984,0.24897 -0.175892,0.45837 -0.365538,0.54224 -0.365538,0.16165 z M 100.27056,129.491 c -0.431375,-0.18537 -0.446483,-0.23083 -0.0818,-0.24599 0.24608,-0.0102 0.52099,0.10046 0.61093,0.24599 0.18803,0.30423 0.17884,0.30423 -0.52917,0 z m -60.506897,-0.18074 c 0.190994,-0.0764 0.4192,-0.067 0.507119,0.0209 0.08792,0.0879 -0.06835,0.15045 -0.347266,0.13897 -0.308226,-0.0127 -0.370919,-0.0754 -0.159853,-0.15985 z m 67.733337,0 c 0.19099,-0.0764 0.4192,-0.067 0.50712,0.0209 0.0879,0.0879 -0.0684,0.15045 -0.34727,0.13897 -0.30823,-0.0127 -0.37092,-0.0754 -0.15985,-0.15985 z m -217.15243,-5.26527 c 0.0127,-0.30823 0.0754,-0.37092 0.15986,-0.15985 0.0764,0.19099 0.067,0.41919 -0.0209,0.50711 -0.0879,0.0879 -0.15045,-0.0684 -0.13897,-0.34726 z m 2.04617,0.23818 c 0.191,-0.0764 0.4192,-0.067 0.50712,0.0209 0.0879,0.0879 -0.0683,0.15045 -0.34726,0.13896 -0.30823,-0.0127 -0.37092,-0.0754 -0.15986,-0.15985 z m 19.390759,-0.53483 c 0.192656,-0.3208 0.407233,-0.52633 0.47684,-0.45672 0.06961,0.0696 -0.08802,0.33208 -0.350282,0.58328 -0.455597,0.43637 -0.461235,0.43074 -0.126558,-0.12656 z m 0.880581,-0.0976 c 0,-0.28036 0.09355,-0.50974 0.207888,-0.50974 0.114337,0 0.207886,0.17156 0.207886,0.38125 0,0.2097 -0.09355,0.43908 -0.207886,0.50975 -0.11434,0.0707 -0.207888,-0.10091 -0.207888,-0.38126 z m 2.074455,0.36523 c 0.257431,-0.0671 0.614619,-0.0627 0.79375,0.01 0.17913,0.0725 -0.03149,0.12736 -0.468056,0.12197 -0.436563,-0.005 -0.583126,-0.0647 -0.325694,-0.13177 z m 1.731293,0.003 c 0.190995,-0.0764 0.419198,-0.067 0.507119,0.0209 0.08792,0.0879 -0.06835,0.15045 -0.347266,0.13896 -0.308226,-0.0127 -0.370919,-0.0754 -0.159853,-0.15985 z m 1.058333,0 c 0.190995,-0.0764 0.419198,-0.067 0.507119,0.0209 0.08792,0.0879 -0.06835,0.15045 -0.347266,0.13896 -0.308226,-0.0127 -0.370919,-0.0754 -0.159853,-0.15985 z m 2.364714,0.005 c 0.181901,-0.0734 0.479557,-0.0734 0.661458,0 0.181901,0.0734 0.03307,0.13346 -0.330729,0.13346 -0.363802,0 -0.51263,-0.0601 -0.330729,-0.13346 z m 22.659986,-0.19929 c -0.07905,-0.20599 -0.09315,-0.71201 -0.03134,-1.12448 0.09667,-0.64509 0.117924,-0.6143 0.152024,0.22018 0.0218,0.53358 0.188471,1.0302 0.370372,1.10359 0.259043,0.10453 0.257243,0.13798 -0.0083,0.15434 -0.186471,0.0115 -0.403707,-0.14764 -0.482754,-0.35363 z m 2.078556,0.19214 c 0.254661,-0.0666 0.67138,-0.0666 0.926041,0 0.254662,0.0665 0.0463,0.121 -0.463021,0.121 -0.509322,0 -0.717682,-0.0545 -0.46302,-0.121 z m 2.050521,0.079 c 0,-0.0568 0.408365,-0.15102 0.907481,-0.20929 0.499115,-0.0583 0.849278,-0.0118 0.778137,0.10334 -0.128038,0.20717 -1.685618,0.30507 -1.685618,0.10595 z m 49.8078127,-0.0834 c -0.6441784,-0.12408 -0.8091726,-1.01273 -0.34671,-1.86739 0.1367313,-0.25269 0.3211565,-0.80106 0.4098369,-1.2186 0.1650524,-0.77714 0.4660106,-1.09274 2.4847418,-2.60569 0.63734422,-0.47766 1.41125048,-1.34472 1.71979169,-1.92681 0.30854121,-0.58208 0.58575841,-1.10295 0.61603471,-1.15748 0.075488,-0.13595 3.2670009,1.455 3.8796331,1.93398 1.5401263,1.20413 -2.2034501,5.15872 -6.13826996,6.48426 -0.88889684,0.29945 -1.70922954,0.52824 -1.82296064,0.50842 -0.1137312,-0.0198 -0.4746758,-0.0876 -0.8020976,-0.15069 z m 11.228078,10e-4 c -0.4148269,-0.10742 -0.471244,-0.3807 -0.4169727,-2.01983 0.068474,-2.06806 0.9408504,-5.05039 2.244098,-7.67174 0.2048219,-0.41198 0.372401,-0.93202 0.372401,-1.15566 0,-0.67335 2.184146,-7.27826 3.876072,-11.72134 l 0.75565,-1.984373 3.094357,-0.07442 c 3.628981,-0.08728 3.160679,-0.494122 4.735667,4.114143 0.583483,1.70722 1.167447,3.34215 1.297699,3.63319 0.130251,0.29105 0.413358,1.06495 0.629129,1.7198 0.215767,0.65484 0.944562,2.73843 1.619538,4.6302 0.674979,1.89177 1.444577,4.09443 1.710219,4.8948 0.265642,0.80036 0.798076,2.28653 1.183185,3.30259 0.656947,1.73328 0.671862,1.86811 0.24148,2.18282 -0.502618,0.36752 -5.025221,0.47177 -5.565362,0.12828 -0.172144,-0.10947 -0.500499,-0.79226 -0.729676,-1.5173 -0.907648,-2.87152 -1.026639,-3.17721 -1.309725,-3.36474 -0.161393,-0.10691 -1.63663,-0.19621 -3.278306,-0.19844 -2.46929,-0.003 -3.012477,-0.076 -3.144714,-0.42059 -0.247747,-0.64563 0.758923,-3.69769 1.366658,-4.14347 0.145751,-0.10691 1.009145,-0.19621 1.91865,-0.19844 1.932554,-0.005 1.995273,-0.1475 1.156428,-2.63227 -0.273471,-0.81005 -0.693071,-2.12766 -0.932445,-2.92803 -0.490405,-1.6397 -0.82437,-2.28059 -1.014307,-1.94647 -0.168055,0.29562 -0.819671,2.51279 -1.660694,5.65064 -0.960789,3.58469 -2.244638,7.69337 -2.645593,8.46667 -0.188634,0.3638 -0.425193,1.21237 -0.52569,1.88571 -0.181618,1.21688 -0.189968,1.22525 -1.385107,1.38906 -1.3208024,0.18104 -2.8472815,0.1722 -3.5926393,-0.0208 z m 23.3065083,-0.003 -0.721143,-0.1096 0.05969,-12.22003 0.05968,-12.219993 2.376611,-0.07734 c 2.006825,-0.06531 2.428793,-0.006 2.71198,0.381299 0.45236,0.618634 0.475522,12.311904 0.02694,13.598714 -0.23485,0.67369 -0.23485,0.90929 0,0.98757 0.219429,0.0732 0.30843,1.46009 0.30843,4.80641 v 4.7036 l -1.389063,0.16684 c -1.440627,0.17304 -2.205365,0.16916 -3.433122,-0.0174 z m 19.967478,-0.10379 c -0.4605,-0.17035 -0.511263,-0.48872 -0.539049,-3.3807 -0.02588,-2.69254 0.03665,-3.23032 0.399137,-3.43318 0.39566,-0.22142 0.394409,-0.31514 -0.01577,-1.17952 -0.391687,-0.82542 -0.437092,-1.87717 -0.37541,-8.69573 l 0.07017,-7.756703 h 2.645834 2.645833 l 0.07663,6.680733 c 0.07191,6.26864 0.04743,6.68122 -0.396875,6.68877 -0.407361,0.007 -0.416478,0.0414 -0.06526,0.24708 0.339174,0.19859 0.421081,1.0429 0.484108,4.99039 0.05296,3.31687 -0.01426,4.80706 -0.222658,4.93585 -0.220286,0.13615 -0.217323,0.28233 0.0113,0.55782 0.258276,0.3112 0.117335,0.37767 -0.84705,0.39946 -0.636281,0.0144 -1.653159,0.0504 -2.259727,0.08 -0.606571,0.0296 -1.331624,-0.0308 -1.611231,-0.13422 z m 13.083577,0.10732 c -0.442791,-0.11473 -0.474343,-0.49733 -0.423654,-5.1374 0.03012,-2.75739 0.161899,-5.07964 0.292833,-5.16056 0.132469,-0.0819 0.100637,-0.31272 -0.07176,-0.52045 -0.245063,-0.29525 -0.220094,-0.37328 0.119446,-0.37328 0.533963,0 0.563615,-0.421 0.04371,-0.62051 -0.312309,-0.11985 -0.376264,-0.7592 -0.336608,-3.36506 0.05761,-3.78574 -0.04192,-3.67596 3.20485,-3.53449 1.975464,0.0861 2.80162,0.30945 2.088235,0.56458 -0.247216,0.0884 -0.235011,0.25207 0.05157,0.69139 0.295646,0.45322 0.346956,1.33471 0.241422,4.14742 -0.190328,5.07256 -0.184505,5.02604 -0.630568,5.0355 -0.300326,0.006 -0.270478,0.10398 0.12269,0.40124 0.457814,0.34614 0.532109,0.79534 0.625083,3.77938 0.13216,4.24176 0.0995,4.291 -2.817193,4.24694 -1.117391,-0.0169 -2.246911,-0.0865 -2.510044,-0.15466 z m 13.231233,5.3e-4 c -0.407644,-0.10574 -0.468667,-0.38683 -0.423061,-1.94868 0.05333,-1.82652 1.128221,-5.74163 1.745957,-6.35937 0.166502,-0.1665 0.238066,-0.47125 0.159027,-0.67722 -0.07904,-0.20597 0.04959,-0.58808 0.285838,-0.84913 0.236249,-0.26105 0.367879,-0.53629 0.292515,-0.61166 -0.14474,-0.14474 4.087376,-12.68967 4.611039,-13.668148 0.286343,-0.535129 0.501222,-0.571767 3.352851,-0.571767 h 3.046899 l 0.415023,0.992185 c 0.439981,1.05185 2.172065,5.8317 2.996181,8.26823 0.862968,2.5514 2.859934,8.2462 3.85037,10.98021 1.423279,3.92882 1.485112,4.17504 1.108568,4.41419 -0.378579,0.24045 -4.982303,0.29145 -5.580706,0.0618 -0.225174,-0.0864 -0.713801,-1.16241 -1.111401,-2.4474 -0.390255,-1.26125 -0.764341,-2.35272 -0.831302,-2.42548 -0.06696,-0.0728 -1.570868,-0.19183 -3.342013,-0.26459 l -3.220262,-0.13229 0.03138,-1.05833 c 0.01725,-0.58209 0.280919,-1.62388 0.585909,-2.31511 l 0.55453,-1.25677 h 1.713579 c 0.942467,0 1.790226,-0.12402 1.88391,-0.2756 0.09368,-0.15158 -0.07959,-1.13384 -0.385037,-2.18281 -0.305451,-1.04897 -0.685131,-2.38346 -0.843728,-2.96555 -0.158599,-0.58208 -0.399841,-1.34239 -0.53609,-1.68958 -0.238853,-0.60862 -0.261271,-0.61336 -0.625491,-0.13229 -0.207767,0.27443 -0.381545,0.70171 -0.386176,0.94953 -0.0046,0.24781 -0.112249,0.72406 -0.239159,1.05833 -0.327885,0.86362 -0.667962,2.06469 -1.483111,5.23797 -0.392502,1.52797 -0.813877,3.01625 -0.936387,3.30729 -0.553316,1.31449 -1.389079,3.81924 -1.676191,5.02348 -0.299556,1.25642 -0.364728,1.3282 -1.367494,1.5061 -1.167231,0.20708 -2.912682,0.22256 -3.645969,0.0324 z m 23.125625,-0.12156 c -0.41465,-0.15314 -0.47546,-0.56284 -0.502585,-3.38618 -0.02487,-2.58855 0.04393,-3.24065 0.354455,-3.35981 0.47126,-0.18084 0.51091,-1.0637 0.0546,-1.21552 -0.498573,-0.16588 -0.644543,-16.060186 -0.15037,-16.373535 0.50541,-0.320472 4.915,-0.282335 5.11684,0.04425 0.26179,0.423605 0.49161,9.995315 0.28054,11.684635 -0.13522,1.08225 -0.31276,1.53632 -0.63382,1.62107 -0.35586,0.0939 -0.36368,0.12392 -0.0387,0.14841 0.49578,0.0374 0.65933,1.8529 0.58672,6.51298 -0.072,4.62329 -0.0229,4.36103 -0.82357,4.39743 -2.31308,0.10515 -3.83115,0.0788 -4.2441,-0.0737 z m 1.56011,-8.44045 c 0,-0.13693 -0.11907,-0.24896 -0.26459,-0.24896 -0.14552,0 -0.26458,0.18562 -0.26458,0.41249 0,0.22687 0.11906,0.3389 0.26458,0.24896 0.14552,-0.0899 0.26459,-0.27555 0.26459,-0.41249 z m 5.10311,8.49064 c -0.53837,-0.22859 -0.58091,-0.40906 -0.52917,-2.24511 0.0309,-1.0981 0.1158,-2.00465 0.18856,-2.01456 1.34774,-0.18367 3.62445,-0.15797 3.86738,0.0436 0.21368,0.17734 0.37539,0.17311 0.4903,-0.0128 0.18322,-0.29646 5.0822,-0.39502 5.80713,-0.11683 0.23019,0.0883 0.41852,0.32645 0.41852,0.52916 0,0.20271 0.18662,0.36857 0.41471,0.36857 0.28822,0 0.36563,0.1546 0.25382,0.5069 -0.0885,0.2788 -0.037,0.58348 0.11446,0.67707 0.3035,0.18758 0.36569,1.18316 0.11474,1.8371 -0.22627,0.58967 -1.42807,0.55208 -1.42285,-0.0445 0.002,-0.25466 0.11344,-0.63592 0.24713,-0.84726 0.33501,-0.52957 0.0488,-0.90058 -0.40447,-0.52437 -0.22809,0.1893 -0.3098,0.55059 -0.21234,0.93889 0.14203,0.56589 0.0715,0.63118 -0.68141,0.63118 -0.46191,0 -1.07774,0.12733 -1.36851,0.28294 -0.37282,0.19953 -0.62839,0.2002 -0.86685,0.002 -0.18599,-0.15436 -0.39989,-0.21893 -0.47533,-0.14349 -0.26455,0.26456 -5.37654,0.37715 -5.95582,0.13118 z m -205.507981,-0.45996 c -0.143585,-0.37709 -0.113194,-0.40748 0.148113,-0.14812 0.180821,0.17948 0.262115,0.39297 0.180653,0.47443 -0.08146,0.0815 -0.229406,-0.0654 -0.328766,-0.32631 z m 5.203749,-0.34214 c 0,-0.50933 0.05445,-0.71769 0.121,-0.46303 0.06655,0.25467 0.06655,0.67138 0,0.92605 -0.06655,0.25466 -0.121,0.0463 -0.121,-0.46302 z m 2.25372,0.61852 c 0.181901,-0.0734 0.479557,-0.0734 0.661458,0 0.181901,0.0734 0.03307,0.13345 -0.330729,0.13345 -0.363802,0 -0.51263,-0.0601 -0.330729,-0.13345 z m 82.7640145,-0.23006 C -8.475502,123.3158 -9.0303571,123.141 -9.4260388,123.141 c -0.7899452,0 -2.8190982,-1.46891 -4.0605132,-2.93942 -1.50011,-1.77695 -2.56159,-4.96951 -1.667364,-5.01486 0.181901,-0.009 0.05015,-0.12914 -0.292788,-0.26649 -0.49375,-0.19774 -0.589912,-0.38361 -0.46205,-0.89305 0.08881,-0.35384 0.04197,-0.71719 -0.104087,-0.80746 -0.146055,-0.0903 -0.265554,-0.86561 -0.265554,-1.72298 0,-4.6858 2.177121,-8.60309 5.953125,-10.71147 1.5846714,-0.884816 4.2794341,-1.574771 5.0282764,-1.287413 0.3021859,0.115959 0.3956817,0.617553 0.3956817,2.122783 v 1.97094 l -1.1788484,0.52146 c -2.2259793,0.98466 -3.1588895,2.07209 -4.1646527,4.85443 -1.199116,3.31724 0.02297,8.00458 2.5030747,9.6006 2.5394444,1.63421 3.0515534,2.80282 1.7750631,4.05063 -0.380283,0.37174 -0.6434137,0.81993 -0.5847318,0.99597 0.1502331,0.4507 -1.0129044,0.39032 -1.6416205,-0.0852 z M -12.309645,112.0568 c 0,-0.31071 -0.773721,-0.60108 -1.086525,-0.40776 -0.134763,0.0833 -0.176525,0.26227 -0.0928,0.39774 0.194551,0.31479 1.179325,0.32316 1.179325,0.01 z m 6.3499998,11.61336 c 0,-0.14552 0.1785937,-0.26458 0.396875,-0.26458 0.2182813,0 0.396875,0.11906 0.396875,0.26458 0,0.14552 -0.1785937,0.26459 -0.396875,0.26459 -0.2182813,0 -0.396875,-0.11907 -0.396875,-0.26459 z m -91.2812508,-0.24897 c 0,-0.13693 0.117698,-0.32171 0.261552,-0.41061 0.149982,-0.0927 0.194339,0.0135 0.103985,0.24896 -0.175893,0.45837 -0.365537,0.54224 -0.365537,0.16165 z m 16.730133,-0.54478 c 0,-0.50932 0.05445,-0.71768 0.121002,-0.46302 0.06655,0.25466 0.06655,0.67138 0,0.92604 -0.06655,0.25466 -0.121002,0.0463 -0.121002,-0.46302 z m -6.014508,0.26459 c -0.08994,-0.14553 -0.03743,-0.26459 0.116676,-0.26459 0.154109,0 0.280199,0.11906 0.280199,0.26459 0,0.14552 -0.0525,0.26458 -0.116676,0.26458 -0.06417,0 -0.190262,-0.11906 -0.280199,-0.26458 z m -23.060369,-0.59239 c 0.023,-0.38836 0.1428,-0.60247 0.26747,-0.47795 0.12474,0.12459 0.10611,0.43956 -0.0416,0.70353 -0.23007,0.4111 -0.26165,0.37956 -0.22586,-0.22558 z m 5.73016,-0.0691 c 0.34177,-0.36381 0.68094,-0.66146 0.7537,-0.66146 0.0728,0 -0.14734,0.29765 -0.48912,0.66146 -0.34177,0.3638 -0.68094,0.66146 -0.7537,0.66146 -0.0728,0 0.14735,-0.29766 0.48912,-0.66146 z m 52.224877,-2.77813 c 0,-1.81901 0.04227,-2.56315 0.09394,-1.65364 0.05166,0.9095 0.05166,2.39778 0,3.30729 -0.05166,0.9095 -0.09394,0.16536 -0.09394,-1.65365 z m -48.123835,2.64584 c -0.08994,-0.14553 0.02913,-0.26459 0.264583,-0.26459 0.235458,0 0.35452,0.11906 0.264584,0.26459 -0.08994,0.14552 -0.209,0.26458 -0.264584,0.26458 -0.05558,0 -0.174646,-0.11906 -0.264583,-0.26458 z m 6.773437,-0.71558 c 0.192655,-0.3208 0.407233,-0.52632 0.47684,-0.45672 0.06961,0.0696 -0.08802,0.33208 -0.350282,0.58328 -0.455596,0.43638 -0.461234,0.43074 -0.126558,-0.12656 z m 25.897578,0.0481 c -0.279606,-0.33691 -0.263239,-0.37562 0.0999,-0.23627 0.390914,0.15 0.434298,-0.23436 0.434298,-3.8478 0,-2.2747 -0.120989,-4.26491 -0.279181,-4.59237 -0.269684,-0.55827 -0.265186,-0.56045 0.132292,-0.0643 0.334425,0.41742 0.411472,1.32157 0.411472,4.82865 0,2.37328 -0.104484,4.31505 -0.232188,4.31505 -0.127701,0 -0.382667,-0.18132 -0.566589,-0.40293 z m 1.709327,0.0611 c -0.07215,-0.18801 -0.09483,-2.1823 -0.05042,-4.43177 l 0.08076,-4.08993 0.05872,4.3151 c 0.0433,3.18206 0.138927,4.26552 0.364185,4.1263 0.189257,-0.11697 0.233643,-0.0726 0.116676,0.11668 -0.245096,0.39657 -0.407767,0.38619 -0.569923,-0.0364 z m -26.818829,-0.10556 c -0.02995,-0.45183 0.506986,-0.71806 0.818968,-0.40608 0.17639,0.17639 0.155078,0.33227 -0.06393,0.46762 -0.211767,0.13088 -0.261424,0.0945 -0.139729,-0.10242 0.103833,-0.16801 0.07262,-0.30547 -0.06936,-0.30547 -0.141982,0 -0.318203,0.14883 -0.391601,0.33073 -0.09623,0.23847 -0.13928,0.24283 -0.154341,0.0156 z m -7.693805,-0.72761 c 0,-0.20969 0.107959,-0.44798 0.239909,-0.52953 0.13195,-0.0815 0.177594,0.09 0.101433,0.38126 -0.161558,0.6178 -0.341342,0.69589 -0.341342,0.14827 z m 35.338886,0.0391 c 0.09936,-0.26094 0.247303,-0.40778 0.328766,-0.32632 0.08146,0.0815 1.69e-4,0.29496 -0.180652,0.47444 -0.261308,0.25936 -0.291698,0.22897 -0.148114,-0.14812 z m 7.27992,-0.0768 c 0.0127,-0.30823 0.07539,-0.37092 0.159851,-0.15985 0.07643,0.19099 0.06703,0.41919 -0.02088,0.50711 -0.08792,0.0879 -0.150452,-0.0684 -0.138964,-0.34726 z m -52.356806,-0.50712 c 0.005,-0.43656 0.0647,-0.58313 0.13177,-0.32569 0.0671,0.25743 0.0627,0.61462 -0.01,0.79375 -0.0725,0.17913 -0.12737,-0.0315 -0.12197,-0.46806 z m 12.069641,0.48072 c 0.190996,-0.0764 0.419199,-0.067 0.507118,0.0209 0.08792,0.0879 -0.06835,0.15046 -0.347266,0.13897 -0.308224,-0.0127 -0.370919,-0.0754 -0.159852,-0.15985 z m 2.563151,-0.34843 c -0.09933,-0.31297 -0.121077,-0.62857 -0.04832,-0.70133 0.07276,-0.0728 0.213565,0.12377 0.312899,0.43675 0.09933,0.31297 0.121077,0.62857 0.04832,0.70133 -0.07276,0.0728 -0.213565,-0.12377 -0.312899,-0.43675 z m 14.486514,-0.39687 c 0.0029,-0.58209 0.05712,-0.78906 0.120407,-0.45994 0.06329,0.32912 0.06088,0.80537 -0.0053,1.05833 -0.06622,0.25297 -0.118004,-0.0163 -0.115067,-0.59839 z m 23.292552,-1.95561 c 0.0104,-1.35746 0.0962,-2.00613 0.2208,-1.66931 0.112083,0.30299 0.104426,1.30207 -0.01701,2.22019 l -0.220801,1.66931 z m -51.140528,1.55873 c 0,-0.14552 0.11907,-0.26458 0.26459,-0.26458 0.14552,0 0.26458,0.11906 0.26458,0.26458 0,0.14552 -0.11906,0.26459 -0.26458,0.26459 -0.14552,0 -0.26459,-0.11907 -0.26459,-0.26459 z m 16.365342,-0.067 c 0.133309,-0.13331 0.524003,-0.19808 0.868207,-0.14394 0.529614,0.0833 0.492347,0.12058 -0.242379,0.24239 -0.525785,0.0872 -0.772613,0.0483 -0.625828,-0.0984 z m 6.026995,0.1237 c -0.07067,-0.11434 0.09216,-0.20789 0.361833,-0.20789 0.269674,0 0.432499,0.0936 0.361834,0.20789 -0.07066,0.11434 -0.233489,0.20789 -0.361834,0.20789 -0.128344,0 -0.291171,-0.0935 -0.361833,-0.20789 z m 2.743083,0.1039 c 0,-0.0572 0.184778,-0.17489 0.410618,-0.26155 0.235458,-0.0904 0.341662,-0.046 0.248968,0.10398 -0.15538,0.25141 -0.659586,0.37186 -0.659586,0.15757 z m -6.928776,-0.34134 c 0.190995,-0.0764 0.419198,-0.067 0.507119,0.0209 0.08792,0.0879 -0.06835,0.15045 -0.347265,0.13896 -0.308227,-0.0127 -0.37092,-0.0754 -0.159854,-0.15985 z m -16.619144,-0.56891 c 0,-0.12127 0.1786,-0.22049 0.39688,-0.22049 0.21828,0 0.39687,0.0992 0.39687,0.22049 0,0.12127 -0.17859,0.22049 -0.39687,0.22049 -0.21828,0 -0.39688,-0.0992 -0.39688,-0.22049 z m -2.16627,-0.22484 c 0.19099,-0.0764 0.4192,-0.067 0.50712,0.0209 0.0879,0.0879 -0.0684,0.15045 -0.34727,0.13896 -0.30822,-0.0127 -0.37092,-0.0754 -0.15985,-0.15985 z m 28.456658,-2.3328 c 7.93e-4,-1.45521 0.04512,-2.01676 0.09873,-1.2479 0.05362,0.76886 0.05305,1.95949 -0.0013,2.64583 -0.05423,0.68635 -0.0981,0.0573 -0.09741,-1.39793 z m -19.326532,0.66146 c 0,-0.94589 0.04802,-1.33284 0.106713,-0.8599 0.05869,0.47295 0.05869,1.24685 0,1.71979 -0.05869,0.47295 -0.106713,0.086 -0.106713,-0.85989 z m 4.148648,0 c 0,-0.14552 0.119062,-0.26458 0.264583,-0.26458 0.145521,0 0.264583,0.11906 0.264583,0.26458 0,0.14552 -0.119062,0.26458 -0.264583,0.26458 -0.145521,0 -0.264583,-0.11906 -0.264583,-0.26458 z m 20.658389,-0.68351 c 0.0127,-0.30822 0.07539,-0.37092 0.15985,-0.15985 0.07643,0.19099 0.06703,0.4192 -0.02088,0.50712 -0.08792,0.0879 -0.150453,-0.0684 -0.138965,-0.34727 z m -31.750003,-0.26458 c 0.0127,-0.30823 0.0754,-0.37092 0.15985,-0.15985 0.0764,0.19099 0.067,0.41919 -0.0209,0.50711 -0.0879,0.0879 -0.15046,-0.0684 -0.13897,-0.34726 z m 55.128518,-6.98941 c 0,-4.00182 0.03677,-5.63893 0.08172,-3.63802 0.04495,2.00091 0.04495,5.27513 0,7.27604 -0.04495,2.00091 -0.08172,0.3638 -0.08172,-3.63802 z m 88.556696,6.15156 c -0.323641,-0.60952 -0.10156,-3.77101 0.298778,-4.25339 0.23971,-0.28884 0.735775,-0.34192 2.114791,-0.22631 1.519423,0.12738 1.946682,0.0655 2.727732,-0.39537 1.67988,-0.99116 2.215674,-3.2065 1.184519,-4.89763 -0.729147,-1.19582 -1.389666,-1.46035 -4.021119,-1.61039 l -2.320449,-0.1323 -0.179456,-1.19671 c -0.0987,-0.65818 -0.07379,-1.62421 0.05535,-2.14673 l 0.234802,-0.950023 3.439583,0.0063 c 3.00745,0.0055 3.609719,0.08252 4.79379,0.612893 2.777355,1.24407 4.170437,3.74167 4.155694,7.45059 -0.01008,2.53418 -0.534879,3.99754 -2.018048,5.62708 -1.117712,1.22802 -2.12896,1.70656 -4.609145,2.18116 -2.928223,0.56033 -5.538936,0.52949 -5.856817,-0.0692 z m -111.90452,-0.7276 c 0.0054,-0.43657 0.06469,-0.58313 0.131774,-0.3257 0.06708,0.25743 0.06267,0.61462 -0.0098,0.79375 -0.07248,0.17913 -0.127362,-0.0315 -0.12197,-0.46805 z m 17.742226,-0.26459 c 0.0029,-0.58208 0.05712,-0.78905 0.120407,-0.45993 0.06329,0.32912 0.06088,0.80537 -0.0053,1.05833 -0.06622,0.25297 -0.118004,-0.0163 -0.115067,-0.5984 z m -42.622863,-0.39687 c 0,-0.3638 0.06005,-0.51263 0.133452,-0.33073 0.0734,0.1819 0.0734,0.47956 0,0.66146 -0.0734,0.1819 -0.133452,0.0331 -0.133452,-0.33073 z m 3.276814,-0.51089 c -0.08372,-0.13546 -0.03122,-0.32108 0.116677,-0.41249 0.147894,-0.0914 0.268899,0.0194 0.268899,0.2463 0,0.46475 -0.158765,0.53318 -0.385576,0.16619 z m 3.548448,-0.57011 c -0.162431,-0.3035 -0.226151,-0.621 -0.1416,-0.70555 0.08455,-0.0846 0.153728,-0.0148 0.153728,0.15495 0,0.16978 0.208359,0.31808 0.463021,0.32957 0.279333,0.0126 0.331161,0.074 0.130643,0.15489 -0.182808,0.0737 -0.265078,0.2429 -0.182823,0.37599 0.08226,0.13309 0.08719,0.24198 0.01096,0.24198 -0.07623,0 -0.271495,-0.24832 -0.433926,-0.55183 z m 4.725019,0.37109 c 0.190994,-0.0764 0.419198,-0.067 0.507119,0.0209 0.08792,0.0879 -0.06835,0.15045 -0.347266,0.13896 -0.308226,-0.0127 -0.370919,-0.0754 -0.159853,-0.15985 z m 7.743415,-0.23818 c 0.0127,-0.30823 0.07539,-0.37092 0.15985,-0.15985 0.07643,0.19099 0.06703,0.41919 -0.02088,0.50711 -0.08792,0.0879 -0.150453,-0.0684 -0.138965,-0.34726 z m 5.586941,-0.24254 c 0.0054,-0.43656 0.06469,-0.58312 0.131774,-0.32569 0.06708,0.25743 0.06267,0.61462 -0.0098,0.79375 -0.07248,0.17913 -0.127362,-0.0315 -0.12197,-0.46806 z m 17.717279,-0.13229 c 0,-0.3638 0.06005,-0.51263 0.133453,-0.33073 0.0734,0.1819 0.0734,0.47956 0,0.66146 -0.0734,0.1819 -0.133453,0.0331 -0.133453,-0.33073 z m -41.316776,-0.26458 c 0,-0.14552 0.119062,-0.26458 0.264583,-0.26458 0.145521,0 0.264584,0.11906 0.264584,0.26458 0,0.14552 -0.119063,0.26458 -0.264584,0.26458 -0.145521,0 -0.264583,-0.11906 -0.264583,-0.26458 z m 18.012556,-0.41892 c 0.0127,-0.30823 0.07539,-0.37092 0.15985,-0.15986 0.07643,0.191 0.06703,0.4192 -0.02088,0.50712 -0.08792,0.0879 -0.150453,-0.0683 -0.138965,-0.34726 z m -14.903702,-0.28548 c 0.181901,-0.0734 0.479557,-0.0734 0.661458,0 0.181902,0.0734 0.03307,0.13346 -0.330729,0.13346 -0.363802,0 -0.51263,-0.0601 -0.330729,-0.13346 z m 16.20573,-0.0893 c 0,-0.14552 0.119062,-0.26458 0.264583,-0.26458 0.145521,0 0.264583,0.11906 0.264583,0.26458 0,0.14552 -0.119062,0.26458 -0.264583,0.26458 -0.145521,0 -0.264583,-0.11906 -0.264583,-0.26458 z m -14.022917,-0.77814 c 0,-0.13693 0.117698,-0.32171 0.261552,-0.41061 0.149982,-0.0927 0.194339,0.0135 0.103985,0.24896 -0.175893,0.45837 -0.365537,0.54224 -0.365537,0.16165 z m -4.847591,-0.58233 c 0.513104,-0.55542 0.534885,-0.68028 0.198438,-1.1375 -0.207862,-0.28247 -0.368531,-0.75872 -0.357043,-1.05833 0.01149,-0.29961 0.08119,-0.39517 0.15489,-0.21237 0.0737,0.18281 0.225696,0.27571 0.337766,0.20645 0.11207,-0.0693 0.147836,0.16664 0.07948,0.52423 -0.08547,0.44713 0.01601,0.70399 0.324988,0.82256 0.356118,0.13666 0.376098,0.21763 0.09636,0.39052 -0.194102,0.11996 -0.352913,0.36965 -0.352913,0.55486 0,0.18522 -0.238125,0.38102 -0.529167,0.43513 -0.510061,0.0948 -0.508356,0.0758 0.0472,-0.52555 z m 18.958701,-0.37865 c 0,-0.29272 0.163534,-0.37229 0.551217,-0.2682 0.303168,0.0814 0.670277,0.158 0.815798,0.17022 0.308189,0.0259 -0.655736,0.46804 -1.080381,0.49559 -0.15765,0.0102 -0.286634,-0.1687 -0.286634,-0.39761 z m 3.615973,0.0193 c 0,-0.21828 0.115327,-0.39688 0.256281,-0.39688 0.140951,0 0.187746,0.1786 0.103984,0.39688 -0.08376,0.21828 -0.199089,0.39687 -0.256281,0.39687 -0.05719,0 -0.103984,-0.17859 -0.103984,-0.39687 z m -24.320779,-0.28663 c 0.01269,-0.30823 0.07539,-0.37092 0.159853,-0.15986 0.07643,0.191 0.06703,0.4192 -0.02089,0.50712 -0.08792,0.0879 -0.150453,-0.0683 -0.138963,-0.34726 z m 6.684997,0.0106 c -0.08617,-0.22455 -0.09755,-0.4674 -0.0253,-0.53966 0.07226,-0.0722 0.194881,0.11148 0.272499,0.40829 0.164875,0.63048 -0.01831,0.72784 -0.2472,0.13137 z m 30.206475,-0.22059 c 0.250113,-0.38172 0.504778,-0.69404 0.56592,-0.69404 0.191394,0 -0.42463,1.0197 -0.730062,1.20847 -0.159835,0.0988 -0.08597,-0.13271 0.164142,-0.51443 z m -29.460065,0.13248 c -0.287092,-0.18199 -0.278839,-0.25214 0.04425,-0.37612 0.21844,-0.0838 0.462811,0.0187 0.543047,0.22777 0.163607,0.42635 -0.05974,0.48277 -0.587296,0.14835 z m 16.103285,-0.0224 c -0.214067,-0.13538 -0.320332,-0.31503 -0.236141,-0.39922 0.08419,-0.0842 0.303678,0.0284 0.487754,0.2502 0.381688,0.4599 0.308502,0.50324 -0.251613,0.14902 z m -1.396725,-0.18557 c 0.181901,-0.0734 0.479557,-0.0734 0.661458,0 0.181901,0.0734 0.03307,0.13346 -0.330729,0.13346 -0.363802,0 -0.51263,-0.0601 -0.330729,-0.13346 z m 4.233333,0 c 0.181901,-0.0734 0.479557,-0.0734 0.661458,0 0.181901,0.0734 0.03307,0.13346 -0.330729,0.13346 -0.363802,0 -0.51263,-0.0601 -0.330729,-0.13346 z m -22.72528,-0.42251 c 0.376662,-0.37666 1.095592,-0.48992 1.095592,-0.1726 0,0.13265 -0.0893,0.25028 -0.198437,0.26142 -0.109141,0.0111 -0.422358,0.0624 -0.696039,0.11395 -0.36743,0.0692 -0.420041,0.0162 -0.201116,-0.20277 z m 7.379447,-0.10665 c 0.181901,-0.0734 0.479557,-0.0734 0.661458,0 0.181901,0.0734 0.03307,0.13345 -0.330729,0.13345 -0.363802,0 -0.51263,-0.06 -0.330729,-0.13345 z m 3.57691,-0.008 c 0.257431,-0.0671 0.614619,-0.0627 0.79375,0.01 0.17913,0.0725 -0.03149,0.12737 -0.468056,0.12197 -0.436563,-0.005 -0.583126,-0.0647 -0.325694,-0.13177 z m 86.4667733,-0.51378 c -0.30160379,-0.38343 -0.54837009,-0.79981 -0.54837009,-0.92528 0,-0.60898 -1.99650091,-2.34349 -3.31206741,-2.87744 l -1.4504326,-0.58869 v -2.09424 c 0,-1.6102 0.091019,-2.129166 0.3938005,-2.245354 0.6658557,-0.255513 3.08936764,0.442291 4.8978662,1.410254 2.1824553,1.1681 3.5464962,2.48377 4.4146629,4.25809 0.6666786,1.36253 0.6715919,1.41024 0.185592,1.80264 -0.4553929,0.36769 -3.6338987,1.95716 -3.9137829,1.95716 -0.065394,0 -0.3656647,-0.31372 -0.6672686,-0.69714 z M -76.53725,108.0515 c -0.327422,-0.13161 -0.595313,-0.29212 -0.595313,-0.35669 0,-0.22448 0.801055,0.002 1.113928,0.3147 0.363992,0.36399 0.296145,0.36948 -0.518615,0.042 z m 14.221354,0.17293 c 0,-0.0549 0.208359,-0.2633 0.463021,-0.46302 0.419645,-0.3291 0.429003,-0.31975 0.0999,0.0999 -0.345644,0.44073 -0.562917,0.58089 -0.562917,0.36312 z m -37.35586,-0.34543 c 0.190996,-0.0764 0.419199,-0.067 0.507118,0.0209 0.08792,0.0879 -0.06835,0.15046 -0.347265,0.13897 -0.308225,-0.0127 -0.37092,-0.0754 -0.159853,-0.15985 z m 2.844745,-0.42598 c 0.09936,-0.26094 0.247304,-0.40778 0.328766,-0.32632 0.08146,0.0815 1.68e-4,0.29496 -0.180653,0.47443 -0.261307,0.25937 -0.291698,0.22898 -0.148113,-0.14811 z m 18.390836,-0.0315 c -0.29327,-0.35337 -0.282845,-0.42014 0.06559,-0.42014 0.227849,0 0.599615,-0.26462 0.826148,-0.58804 0.226531,-0.32342 0.411877,-0.44951 0.411877,-0.28019 0,0.16931 -0.127405,0.38658 -0.283125,0.48282 -0.155718,0.0962 -0.370578,0.41139 -0.477465,0.70033 -0.175212,0.47365 -0.228658,0.484 -0.543022,0.10522 z m -20.913342,-0.33838 c -0.0099,-0.38923 0.454782,-0.69129 1.183025,-0.76893 0.395941,-0.0422 0.564097,0.10176 0.594793,0.50926 0.02354,0.31246 -0.04123,0.44187 -0.143931,0.28757 -0.360118,-0.54106 -1.091376,-0.62953 -1.362307,-0.16481 -0.144944,0.24861 -0.267155,0.31023 -0.27158,0.13691 z m 39.558463,-0.0635 c -0.08372,-0.13546 -0.01283,-0.33245 0.157557,-0.43775 0.185714,-0.11478 0.239128,-0.0771 0.133368,0.094 -0.09703,0.157 0.0334,0.34017 0.289849,0.40707 0.416843,0.10873 0.41884,0.12487 0.01886,0.15231 -0.246074,0.0169 -0.515906,-0.0801 -0.599628,-0.21561 z m 3.031408,-0.0183 c 0.218281,-0.14106 0.515938,-0.25648 0.661458,-0.25648 0.145521,0 0.08599,0.11542 -0.132291,0.25648 -0.218281,0.14107 -0.515938,0.25648 -0.661459,0.25648 -0.14552,0 -0.08599,-0.11541 0.132292,-0.25648 z m -23.751117,-0.79375 c 0,-0.50932 0.05445,-0.71768 0.121002,-0.46302 0.06655,0.25466 0.06655,0.67138 0,0.92604 -0.06655,0.25466 -0.121002,0.0463 -0.121002,-0.46302 z m 8.499933,0.59007 c 0.09703,-0.15699 -0.0334,-0.34017 -0.289848,-0.40706 -0.416844,-0.10873 -0.418841,-0.12488 -0.01886,-0.15232 0.56084,-0.0385 0.855895,0.39761 0.442071,0.65337 -0.185714,0.11478 -0.239128,0.0771 -0.133369,-0.094 z m 17.252569,-0.66762 c 0.09936,-0.26094 0.247304,-0.40779 0.328766,-0.32632 0.08146,0.0815 1.7e-4,0.29495 -0.180652,0.47443 -0.261308,0.25936 -0.291698,0.22897 -0.148114,-0.14811 z m -43.099996,-0.89259 c -0.09701,-0.097 -0.176389,-0.34364 -0.176389,-0.54806 0,-0.30798 0.06801,-0.30366 0.396875,0.0252 0.218281,0.21828 0.396875,0.46491 0.396875,0.54806 0,0.2071 -0.401452,0.19071 -0.617361,-0.0252 z m 17.352833,-1.27882 c 0.0029,-0.58208 0.05712,-0.78905 0.120407,-0.45993 0.06329,0.32912 0.06088,0.80537 -0.0053,1.05833 -0.06622,0.25297 -0.117998,-0.0163 -0.115062,-0.5984 z m -15.015681,0.39688 c 0.08994,-0.14552 0.282584,-0.26458 0.428105,-0.26458 0.145521,0 0.190999,0.11906 0.101062,0.26458 -0.08994,0.14552 -0.282584,0.26458 -0.428105,0.26458 -0.145521,0 -0.190999,-0.11906 -0.101062,-0.26458 z m -3.96875,-0.26458 c -0.08994,-0.14553 -0.03743,-0.26459 0.116677,-0.26459 0.154109,0 0.280198,0.11906 0.280198,0.26459 0,0.14552 -0.0525,0.26458 -0.116677,0.26458 -0.06417,0 -0.190261,-0.11906 -0.280198,-0.26458 z m 5.180263,-0.15434 c 0.01269,-0.30823 0.07539,-0.37092 0.159853,-0.15986 0.07643,0.191 0.06703,0.4192 -0.02089,0.50712 -0.08792,0.0879 -0.150453,-0.0683 -0.138963,-0.34726 z m 151.74105,0.19219 c -0.170902,-0.27653 -3.1e-5,-1.76422 0.248894,-2.16699 0.118925,-0.19242 0.396338,-0.0891 0.813959,0.30327 0.621892,0.58424 0.633545,0.5852 0.633545,0.0523 0,-0.29859 0.178593,-0.69111 0.396875,-0.87227 0.566139,-0.46985 0.490482,-0.87994 -0.132292,-0.71709 -0.291042,0.0761 -0.529167,0.0387 -0.529167,-0.083 0,-0.12177 -0.235071,-0.25945 -0.52238,-0.30595 -0.391493,-0.0634 -0.460221,-0.184 -0.274299,-0.481428 0.210974,-0.337505 1.268725,-0.392046 7.070821,-0.364597 7.592279,0.03592 8.65909,0.154859 8.45313,0.942455 -0.191238,0.73129 0.674553,0.51856 1.012032,-0.24867 0.445227,-1.012194 0.904623,-0.730046 0.648713,0.39842 -0.137544,0.60652 -0.126714,1.02647 0.02786,1.08038 0.336646,0.11741 0.322959,1.53542 -0.02101,2.17816 -0.243699,0.45533 -0.575699,0.51177 -3.010326,0.51177 -2.158754,0 -2.80888,-0.0873 -3.07967,-0.41359 -0.31128,-0.37507 -0.364813,-0.37507 -0.574712,0 -0.198097,0.35398 -1.009097,0.41359 -5.626653,0.41359 -2.967358,0 -5.458254,-0.10203 -5.535325,-0.22673 z m 15.841118,-2.85637 c -0.522168,-0.38182 -0.915554,-0.46226 -0.915554,-0.18722 0,0.30187 0.913099,0.84654 1.161643,0.69293 0.132792,-0.0821 0.02204,-0.30964 -0.246089,-0.50571 z m -1.49433,-0.60453 c 0.06615,-0.19844 -0.03307,-0.29766 -0.23151,-0.23151 -0.190995,0.0637 -0.399354,0.27202 -0.463021,0.46302 -0.06615,0.19844 0.03307,0.29766 0.231511,0.23151 0.190994,-0.0637 0.399354,-0.27203 0.46302,-0.46302 z m -164.877232,3.22461 c -0.06746,-0.10914 0.431531,-0.16364 1.108865,-0.1211 2.099545,0.13186 2.361726,0.24589 0.65182,0.2835 -0.900918,0.0198 -1.693226,-0.0533 -1.760685,-0.1624 z m 4.523194,0.007 c 0.472943,-0.0587 1.246849,-0.0587 1.719792,0 0.472942,0.0587 0.08599,0.10671 -0.859896,0.10671 -0.945886,0 -1.332839,-0.048 -0.859896,-0.10671 z m 3.71116,-0.003 c 0.62231,-0.0559 1.57481,-0.0551 2.116666,0.002 0.541856,0.0569 0.0327,0.10258 -1.131472,0.10162 -1.164167,-9.5e-4 -1.607505,-0.0475 -0.985194,-0.10337 z m -14.079045,-0.94181 c 0.09936,-0.26094 0.247304,-0.40779 0.328765,-0.32632 0.08146,0.0815 1.68e-4,0.29495 -0.180653,0.47443 -0.261307,0.25936 -0.291698,0.22897 -0.148112,-0.14811 z m -3.166703,-0.61337 c -0.11836,-0.30843 -0.0502,-0.38282 0.24643,-0.26899 0.26697,0.10245 0.49339,-0.0488 0.64896,-0.43356 0.22692,-0.56122 0.23688,-0.55531 0.1983,0.11763 -0.0224,0.38969 -0.13444,0.65055 -0.24909,0.57969 -0.11465,-0.0709 -0.20845,-0.003 -0.20845,0.15137 0,0.43443 -0.45333,0.33029 -0.63615,-0.14614 z m 7.800788,-0.52175 c 0.01269,-0.30823 0.07539,-0.37092 0.159853,-0.15985 0.07643,0.19099 0.06703,0.4192 -0.02089,0.50711 -0.08792,0.0879 -0.150453,-0.0683 -0.138963,-0.34726 z m 13.768137,0.10381 c -0.04506,-0.65684 0.384763,-0.80596 0.799225,-0.27729 0.322469,0.41133 0.313968,0.42356 -0.08021,0.11533 -0.373653,-0.29218 -0.459785,-0.272 -0.564621,0.13229 -0.107556,0.41479 -0.127712,0.41867 -0.154398,0.0297 z m -17.62361,-0.21102 c -0.09269,-0.14999 0.01351,-0.19434 0.248968,-0.10399 0.458369,0.17589 0.542234,0.36554 0.161649,0.36554 -0.136933,0 -0.32171,-0.1177 -0.410617,-0.26155 z m 1.987808,-0.4063 c 0.184076,-0.2218 0.389171,-0.34879 0.455766,-0.28219 0.183488,0.18349 -0.18932,0.68546 -0.509084,0.68546 -0.175443,0 -0.155371,-0.15182 0.05332,-0.40327 z m -7.678223,-0.0746 c 0,-0.13809 0.17859,-0.3993 0.39688,-0.58046 0.21828,-0.18116 0.39687,-0.24676 0.39687,-0.14579 0,0.10098 -0.17859,0.36218 -0.39687,0.58046 -0.21829,0.21829 -0.39688,0.28389 -0.39688,0.14579 z m 6.085417,-0.31587 c 0,-0.32604 -0.177739,-0.53073 -0.463021,-0.53322 -0.396392,-0.003 -0.40591,-0.0415 -0.06615,-0.26459 0.352778,-0.23158 0.352778,-0.289476 0,-0.52106 -0.218281,-0.143292 -0.262625,-0.262355 -0.09854,-0.264583 0.164082,-0.0022 0.406707,0.144777 0.539165,0.326678 0.277183,0.380645 0.46585,1.785935 0.239771,1.785935 -0.08317,0 -0.151227,-0.23812 -0.151227,-0.52916 z m 12.038542,0.26458 c -0.08994,-0.14552 -0.03743,-0.26458 0.116676,-0.26458 0.154109,0 0.280199,0.11906 0.280199,0.26458 0,0.14552 -0.0525,0.26458 -0.116676,0.26458 -0.06417,0 -0.190262,-0.11906 -0.280199,-0.26458 z M -99.88673,100.7754 c 0,-0.21371 0.178594,-0.38857 0.396875,-0.38857 0.218281,0 0.396875,0.10632 0.396875,0.23627 0,0.12996 -0.178594,0.30481 -0.396875,0.38858 -0.241752,0.0928 -0.396875,4.2e-4 -0.396875,-0.23628 z m -5.35398,-0.828864 c -0.37664,-0.376638 -0.50915,-0.388296 -0.9166,-0.08064 -0.45262,0.341784 -0.45369,0.334954 -0.0215,-0.137335 0.43661,-0.477133 0.47559,-0.478161 0.97551,-0.02574 0.29343,0.26555 0.66135,0.384349 0.84287,0.272164 0.20554,-0.127029 0.2538,-0.08853 0.13335,0.106375 -0.25701,0.41585 -0.49453,0.38426 -1.01362,-0.134831 z m 2.64509,-0.540587 c 0.32911,-0.06329 0.80536,-0.06088 1.05833,0.0053 0.25296,0.06622 -0.0163,0.118003 -0.5984,0.115066 -0.58208,-0.0029 -0.78905,-0.05712 -0.45993,-0.120406 z m 17.194828,0.0119 c 0.181901,-0.0734 0.479557,-0.0734 0.661458,0 0.181901,0.0734 0.03307,0.133452 -0.330729,0.133452 -0.363802,0 -0.51263,-0.06005 -0.330729,-0.133452 z"
         id="path1232" />
      <path
         style="fill:#1a1a1a;stroke-width:0.264583"
         d="m -0.21584524,141.4966 c -0.1031531,-0.10315 -0.18754989,-2.23856 -0.18754989,-4.74535 0,-3.96514 0.0559673,-4.57928 0.43041094,-4.72297 1.03433039,-0.39691 1.17273129,0.23069 1.09703129,4.97464 -0.069064,4.32791 -0.09594,4.53001 -0.61228816,4.60392 -0.29702919,0.0425 -0.62445107,-0.007 -0.72760418,-0.11024 z M 67.711857,141.32138 c -0.07185,-0.18724 -0.09788,-2.36013 -0.05784,-4.82864 0.06955,-4.28755 0.09646,-4.4882 0.601967,-4.4882 0.507201,0 0.532159,0.20042 0.601281,4.82864 0.07046,4.71794 0.05966,4.82865 -0.471326,4.82865 -0.298892,0 -0.602226,-0.1532 -0.674079,-0.34045 z m -102.119217,-2.3576 c -0.07226,-0.18956 -0.100692,-12.31044 -0.06319,-26.93528 l 0.06819,-26.590629 h 1.455208 1.455209 v 26.855209 26.85521 l -1.392021,0.0801 c -0.960612,0.0553 -1.432737,-0.0267 -1.523402,-0.26458 z m 36.7159441,-0.22713 c -0.3274219,-0.12803 -0.5953125,-0.35941 -0.5953125,-0.51418 0,-0.29207 0.1950323,-0.38398 1.3437023,-0.63324 1.2044098,-0.26136 1.6679148,-2.1255 0.8984615,-3.61346 -0.3683132,-0.71223 -0.7695882,-0.91078 -1.6268991,-0.80494 -0.4883203,0.0603 -0.6933671,-0.4888 -0.3410638,-0.9133 0.8839094,-1.06504 3.2822674,0.26738 3.6780232,2.04335 0.6135503,2.75332 -1.2755668,5.24957 -3.3569116,4.43577 z m 13.8244789,0.0692 c -0.681971,-0.14898 -0.967935,-0.61115 -0.630055,-1.01827 0.194768,-0.23468 0.473311,-0.2478 1.043197,-0.0491 0.427617,0.14906 0.777483,0.36386 0.777483,0.47733 0,0.38119 -0.656793,0.70669 -1.190625,0.59007 z m 6.264212,-0.0794 c -0.852284,-0.32854 -0.67083,-1.1983 0.224602,-1.07659 0.932662,0.12677 1.240002,0.50107 0.775888,0.94493 -0.272037,0.26016 -0.566571,0.29892 -1.00049,0.13166 z m 11.925893,0.0961 c -0.374513,-0.0679 -0.595313,-0.29734 -0.595313,-0.61867 0,-0.38894 0.18574,-0.51076 0.778748,-0.51076 1.019334,0 1.602502,-0.84422 1.602502,-2.31986 0,-1.37576 -0.907306,-2.50179 -1.822915,-2.26235 -0.43701,0.11428 -0.558335,0.0254 -0.558335,-0.40898 0,-0.72796 1.066007,-1.00026 2.153095,-0.54997 1.722183,0.71335 2.335887,3.21958 1.29027,5.26916 -0.288962,0.56642 -0.616384,1.08099 -0.727605,1.14351 -0.400965,0.22537 -1.537374,0.3636 -2.120447,0.25792 z m 5.870808,-0.0559 c -0.828191,-0.34289 -1.120585,-1.88805 -1.079342,-5.70377 l 0.03718,-3.43958 0.720622,-0.083 0.720621,-0.0831 0.07313,4.0518 c 0.0709,3.92849 0.09145,4.05983 0.675198,4.31589 1.270505,0.55728 0.148412,1.47826 -1.147408,0.94176 z m 18.424329,0.002 c -0.757206,-0.19354 -0.966687,-0.62207 -0.491447,-1.00532 0.441092,-0.35572 1.530164,0.0479 1.530164,0.56714 0,0.52155 -0.268838,0.63496 -1.038717,0.43818 z m 11.62344,-0.0144 c -0.363038,-0.0871 -0.699191,-0.36142 -0.747004,-0.6097 -0.06838,-0.35509 0.1079,-0.45142 0.826109,-0.45142 1.219856,0 1.639297,-0.57543 1.639297,-2.24896 0,-1.67353 -0.419441,-2.24896 -1.639297,-2.24896 -0.72299,0 -0.894702,-0.0952 -0.824929,-0.45755 0.04846,-0.25166 0.413258,-0.5719 0.810652,-0.71165 1.053899,-0.37064 2.499376,0.38337 2.991117,1.56027 1.208173,2.89157 -0.500308,5.78081 -3.055945,5.16797 z m 13.758333,0.0254 c -0.363037,-0.10102 -0.69919,-0.38681 -0.747003,-0.63509 -0.06885,-0.3575 0.10976,-0.45142 0.858507,-0.45142 0.83208,0 0.945441,0.0793 0.945441,0.66146 0,0.70104 -0.0266,0.71174 -1.056945,0.42505 z m 6.35,0 c -0.363037,-0.10102 -0.69919,-0.38681 -0.747003,-0.63509 -0.06885,-0.3575 0.10976,-0.45142 0.858507,-0.45142 0.83208,0 0.945441,0.0793 0.945441,0.66146 0,0.70104 -0.0266,0.71174 -1.056945,0.42505 z m 11.772572,0.0362 c -1.15159,-0.27321 -1.0707,-1.12266 0.1069,-1.12266 1.10618,0 1.74054,-0.86456 1.7051,-2.32388 -0.036,-1.48175 -0.9298,-2.45802 -2.05376,-2.24316 -0.80254,0.15342 -0.92807,-0.34894 -0.22126,-0.88548 1.25893,-0.95567 3.2468,0.17579 3.73832,2.12779 0.66159,2.6274 -1.06495,4.97179 -3.2753,4.44739 z m 6.05552,0.0183 c -0.94672,-0.18612 -1.16073,-1.18256 -1.16073,-5.4043 v -3.97387 l 0.7276,0.0837 0.72761,0.0837 0.0728,3.99547 c 0.0722,3.96326 0.0781,3.99787 0.72761,4.2938 0.36013,0.16409 0.65478,0.40722 0.65478,0.54029 0,0.24176 -0.67978,0.59519 -1.01383,0.52711 -0.0972,-0.0198 -0.42838,-0.0855 -0.73586,-0.14594 z m -122.869065,-3.54059 c 0,-3.43472 0.004,-3.45742 0.595312,-3.37344 0.577265,0.082 0.597556,0.18681 0.669364,3.45798 l 0.07405,3.37344 h -0.669361 -0.669364 z m 3.497823,0.0845 c 0.06964,-3.17236 0.105593,-3.37343 0.603218,-3.37343 0.497626,0 0.53358,0.20107 0.6032187,3.37343 l 0.074049,3.37344 h -0.6772677 -0.677267 z m 3.6459268,0.74322 c 0,-2.70744 -0.1006793,-2.97538 -1.1385418,-3.03003 -0.7791053,-0.041 -0.8269658,-0.53963 -0.089675,-0.93421 0.7517738,-0.40234 1.5741279,-0.1947 2.2955012,0.57961 0.4474977,0.48033 0.5202158,0.93975 0.5202158,3.28662 v 2.72823 h -0.79375 -0.79375 z m 3.96875,0.13558 c 0,-2.69038 -0.3003523,-3.40568 -1.3182626,-3.13949 -0.6038215,0.1579 -0.7358116,-0.40804 -0.2163207,-0.92753 0.4619096,-0.46191 1.306486,-0.37927 2.06375,0.20194 0.6236097,0.47862 0.6665833,0.6751 0.7510145,3.4337 l 0.089554,2.92602 h -0.684866 -0.6848687 z m 11.669075,1.55939 c -0.7080858,-0.80646 -0.8211582,-1.138 -0.8211582,-2.40771 0,-1.32178 0.092054,-1.56451 0.8995834,-2.37204 0.4947708,-0.49477 1.083056,-0.89958 1.307301,-0.89958 0.739262,0 0.772216,0.56081 0.075676,1.28784 -1.2336622,1.28767 -1.1793882,2.71116 0.1594723,4.18268 0.2881021,0.31665 0.4447907,0.7036 0.3481967,0.85989 -0.3377986,0.54657 -1.1546705,0.27647 -1.9690712,-0.65108 z m 2.6184252,0.48928 c 0,-0.24528 0.254497,-0.71687 0.565552,-1.04797 0.847619,-0.90224 0.883447,-2.54895 0.07633,-3.50815 -0.565951,-0.6726 -0.886973,-1.87707 -0.500284,-1.87707 0.256683,0 1.571836,0.91096 1.904629,1.31927 0.663967,0.81464 0.911993,2.34508 0.549072,3.38806 -0.563208,1.61857 -2.595301,2.9699 -2.595301,1.72586 z m 7.14375,-0.0832 c 0,-0.29105 0.106326,-0.52917 0.236276,-0.52917 0.455353,0 0.566332,-0.87459 0.166978,-1.31587 -0.957122,-1.05761 -0.221324,-1.58798 0.897261,-0.64676 0.959998,0.80779 1.008496,1.21394 0.26897,2.25251 -0.63948,0.89807 -1.569485,1.03985 -1.569485,0.23929 z m 6.35,0.23767 c 0,-0.18056 0.193035,-0.5416 0.428964,-0.8023 0.4289,-0.47393 0.389959,-0.75538 -0.222896,-1.61091 -0.481742,-0.67249 0.02758,-1.0633 0.850847,-0.65286 1.009685,0.50338 1.284253,1.60714 0.621448,2.4982 -0.56611,0.76106 -1.678363,1.13739 -1.678363,0.56787 z m 3.946703,0.18237 c -0.06063,-0.06 -0.05071,-1.57806 0.02204,-3.37344 0.123357,-3.04383 0.168035,-3.26431 0.661459,-3.26431 0.497625,0 0.53358,0.20107 0.603218,3.37343 l 0.07405,3.37344 h -0.625266 c -0.343895,0 -0.674876,-0.0491 -0.735507,-0.10912 z m 3.461631,-4.52109 v -4.6302 h 0.786431 0.786432 l -0.008,4.25166 c -0.0044,2.33842 -0.07339,4.42201 -0.153281,4.63021 -0.0799,0.2082 -0.430181,0.37854 -0.778415,0.37854 h -0.63315 z m 12.727408,3.69496 c -0.691269,-0.78731 -0.821158,-1.15092 -0.821158,-2.29873 0,-1.53559 0.677471,-2.79134 1.788887,-3.31585 1.294519,-0.61091 1.500471,0.1227 0.327779,1.16757 -0.692353,0.61689 -0.79375,0.88562 -0.79375,2.1037 0,1.14314 0.106678,1.47119 0.58804,1.80835 0.670369,0.46955 2.081813,0.54661 2.49234,0.13608 0.191342,-0.19134 0.381614,-0.14829 0.621345,0.14056 0.531315,0.6402 -0.380545,1.17502 -2.020671,1.18516 -1.23222,0.008 -1.439709,-0.0805 -2.182812,-0.92684 z m 10.026759,-2.52273 c 0,-3.43472 0.004,-3.45742 0.595312,-3.37344 0.577265,0.082 0.597556,0.18681 0.669364,3.45798 l 0.07405,3.37344 H 55.03472 54.365356 Z m 5.820833,3.1443 c 0,-0.17252 0.250235,-0.58003 0.556075,-0.90559 l 0.556075,-0.59191 -0.556075,-0.47613 c -0.653254,-0.55933 -0.737288,-1.41685 -0.138848,-1.41685 0.431609,0 1.964782,1.37896 1.963033,1.76558 -5.29e-4,0.12033 -0.236918,0.60574 -0.525277,1.07869 -0.367765,0.60318 -0.722924,0.85989 -1.189635,0.85989 -0.365943,0 -0.665348,-0.14115 -0.665348,-0.31368 z M 76.10099,138.1324 c -0.767106,-0.81655 -1.14923,-2.18948 -0.949661,-3.41204 0.174652,-1.06991 1.389928,-2.58345 2.074347,-2.58345 0.549428,0 0.542573,0.75226 -0.01244,1.36555 -0.239501,0.26464 -0.490435,1.05333 -0.557628,1.75264 -0.104945,1.09218 -0.02223,1.39027 0.586711,2.11393 1.114279,1.32425 0.05266,2.03431 -1.141326,0.76337 z m 2.207348,0.35158 c -0.09093,-0.14713 0.199697,-0.63254 0.645842,-1.07869 1.07605,-1.07605 1.140966,-2.71859 0.149718,-3.78817 -0.651992,-0.70351 -0.820452,-1.23302 -0.495623,-1.55785 0.208274,-0.20828 1.480333,0.43676 1.930127,0.97873 0.493091,0.59414 0.824786,2.27537 0.64525,3.27053 -0.283009,1.5687 -2.304875,3.09844 -2.875314,2.17545 z m 7.277851,-0.19801 c 0,-0.25604 0.261562,-0.62887 0.581248,-0.82852 l 0.581247,-0.36299 -0.581247,-0.47067 c -0.319686,-0.25886 -0.581248,-0.72749 -0.581248,-1.04139 0,-0.46678 0.108435,-0.5392 0.595313,-0.39762 0.740579,0.21535 1.521354,1.09205 1.521354,1.70826 0,0.25529 -0.246766,0.77789 -0.54837,1.16131 -0.629505,0.80029 -1.568297,0.93893 -1.568297,0.23162 z m 6.35,0.10965 c 0,-0.19572 0.239972,-0.57304 0.533273,-0.83847 l 0.533273,-0.4826 -0.533273,-0.56765 c -0.610494,-0.64984 -0.705961,-1.45957 -0.172079,-1.45957 0.198657,0 0.687477,0.25665 1.08627,0.57034 0.613794,0.48281 0.702337,0.71047 0.576914,1.48336 -0.156298,0.96314 -0.788488,1.628 -1.561357,1.64205 -0.254661,0.005 -0.463021,-0.15173 -0.463021,-0.34746 z m 4.026991,-3.01757 c 0.07181,-3.27117 0.0921,-3.376 0.669364,-3.45798 0.591306,-0.084 0.595312,-0.0613 0.595312,3.37344 v 3.45798 h -0.669364 -0.669361 z m 3.381343,-1.27434 v -4.64778 l 0.727607,0.0837 0.7276,0.0837 0.0696,3.175 c 0.0383,1.74625 -3e-5,3.80007 -0.0852,4.56406 -0.13953,1.25179 -0.21831,1.38906 -0.797248,1.38906 h -0.642419 z m 12.952757,3.84137 c -1.48333,-1.58791 -1.21608,-4.29244 0.54831,-5.5488 0.40471,-0.28817 0.80675,-0.52395 0.89342,-0.52395 0.31922,0 0.14579,1.30359 -0.20065,1.5082 -1.03827,0.61321 -1.2604,2.54239 -0.4163,3.61549 0.58919,0.74903 1.70399,0.92634 2.64795,0.42115 0.40655,-0.21759 0.55196,-0.18149 0.68705,0.17055 0.25895,0.67482 -0.62671,1.16377 -2.10799,1.16377 -1.10614,0 -1.41008,-0.11946 -2.05179,-0.80641 z M 15.904162,135.2927 c -0.911328,-0.71685 -0.931476,-1.88717 -0.04771,-2.77094 1.093721,-1.09373 1.81602,-0.66007 1.052745,0.63205 -0.417637,0.707 -0.417174,0.79594 0.0075,1.44412 0.425434,0.64929 0.376642,1.24315 -0.10214,1.24315 -0.117308,0 -0.527,-0.24677 -0.910426,-0.54838 z m 6.380464,-0.0112 c -0.969873,-0.7236 -0.981361,-1.87631 -0.02751,-2.76031 0.385053,-0.35685 0.794744,-0.64882 0.910428,-0.64882 0.470236,0 0.511106,0.57141 0.09166,1.28148 -0.417637,0.707 -0.417174,0.79594 0.0075,1.44412 0.414036,0.6319 0.377847,1.25537 -0.07167,1.23477 -0.100553,-0.005 -0.510244,-0.25267 -0.910426,-0.55124 z m 23.131902,0.10812 c 0.07064,-0.37145 0.39148,-0.49192 1.476827,-0.55452 0.76262,-0.044 1.386584,-0.19822 1.386584,-0.34275 0,-0.14453 -0.297656,-0.56044 -0.661459,-0.92424 -0.363802,-0.36381 -0.661458,-0.89723 -0.661458,-1.1854 0,-0.4865 0.05203,-0.49703 0.728229,-0.14735 1.139505,0.58926 1.653788,1.31769 1.72222,2.43934 l 0.06309,1.03412 -2.07214,0.0777 c -1.872303,0.0702 -2.063435,0.0319 -1.981896,-0.39688 z m 12.967467,-0.088 c -0.551987,-0.51425 -0.696602,-0.96054 -0.59681,-1.84177 0.04948,-0.43697 1.223579,-1.5875 1.620007,-1.5875 0.362532,0 0.306615,1.1603 -0.07427,1.54119 -0.255749,0.25574 -0.255749,0.43355 0,0.84307 0.427048,0.68381 0.414041,1.58449 -0.02289,1.58449 -0.190841,0 -0.60756,-0.24277 -0.926042,-0.53948 z m 25.256454,-0.10935 c -0.729808,-0.67636 -0.800325,-0.9344 -0.530559,-1.94146 0.135197,-0.50469 1.277242,-1.37846 1.801702,-1.37846 0.269891,0 0.147939,1.0615 -0.182798,1.59109 -0.261247,0.41832 -0.261247,0.63283 0,1.05115 0.815459,1.30575 0.08209,1.7624 -1.088345,0.67768 z m 6.493547,0.10935 c -0.551987,-0.51425 -0.696603,-0.96054 -0.59681,-1.84177 0.04948,-0.43697 1.223579,-1.5875 1.620007,-1.5875 0.362532,0 0.306615,1.1603 -0.07427,1.54119 -0.255749,0.25574 -0.255749,0.43355 0,0.84307 0.427048,0.68381 0.414041,1.58449 -0.02289,1.58449 -0.190841,0 -0.60756,-0.24277 -0.926041,-0.53948 z m 23.163484,0.38132 c -0.087,-0.087 -0.0941,-0.32511 -0.0158,-0.52917 0.0953,-0.24834 0.57041,-0.37101 1.43698,-0.37101 1.5383,0 1.6577,-0.34688 0.50086,-1.4552 -0.43656,-0.41826 -0.79375,-0.85725 -0.79375,-0.97555 0,-0.53739 1.1961,-0.13023 2.01083,0.6845 0.68988,0.68988 0.89958,1.12163 0.89958,1.85209 v 0.9525 h -1.94027 c -1.06716,0 -2.01145,-0.0712 -2.09844,-0.15816 z m -27.115978,-2.50543 c -0.719238,-0.27761 -0.824492,-1.30933 -0.132292,-1.29675 0.254662,0.005 0.69573,0.18439 0.980152,0.39946 0.450932,0.34099 0.467868,0.43816 0.132291,0.75906 -0.266244,0.25461 -0.568295,0.29721 -0.980151,0.13823 z m 6.35,0 c -0.729687,-0.28165 -0.821214,-1.30516 -0.116716,-1.30516 0.263229,0 0.709713,0.17131 0.992188,0.3807 0.455755,0.33783 0.4689,0.42426 0.116715,0.76748 -0.2789,0.27179 -0.573839,0.31846 -0.992187,0.15698 z m -74.502257,-0.15864 c -0.282747,-0.28274 -0.203197,-1.14652 0.105587,-1.14652 0.538094,0 1.305523,0.54982 1.305523,0.93534 0,0.39184 -1.070287,0.55201 -1.41111,0.21118 z m 6.35,0 c -0.282747,-0.28274 -0.203197,-1.14652 0.105587,-1.14652 0.538094,0 1.305523,0.54982 1.305523,0.93534 0,0.39184 -1.070287,0.55201 -1.41111,0.21118 z m 36.137673,0.001 c -0.478573,-0.19301 -0.409088,-1.14758 0.08354,-1.14758 0.653166,0 1.437814,0.51044 1.437814,0.93534 0,0.37969 -0.822227,0.49445 -1.521354,0.21234 z m -80.49948,-1.65511 c 0,-0.27914 -0.07227,-0.69586 -0.160599,-0.92604 -0.122219,-0.3185 0.01161,-0.41852 0.560025,-0.41852 0.618196,0 0.697949,0.0846 0.561088,0.59531 -0.08775,0.32743 -0.161165,0.74414 -0.163152,0.92605 -0.0021,0.1819 -0.182206,0.33073 -0.400487,0.33073 -0.218281,0 -0.396875,-0.22839 -0.396875,-0.50753 z m 2.293056,0.33114 c -0.09701,-0.097 -0.176389,-0.51374 -0.176389,-0.92605 0,-0.57326 0.12451,-0.74965 0.529166,-0.74965 0.428374,0 0.529167,0.17639 0.529167,0.92604 0,0.87153 -0.41085,1.22075 -0.881944,0.74966 z m 137.142366,-0.7497 c 0,-0.76666 0.0964,-0.92604 0.56002,-0.92604 0.45165,0 0.52915,0.11521 0.40049,0.59531 -0.0877,0.32743 -0.16116,0.74414 -0.16315,0.92605 -0.002,0.1819 -0.18221,0.33073 -0.40049,0.33073 -0.27718,0 -0.39687,-0.27929 -0.39687,-0.92605 z m 2.37763,0.61736 c -0.002,-0.19402 -0.0754,-0.62066 -0.16315,-0.94809 -0.13418,-0.5007 -0.0548,-0.59531 0.49937,-0.59531 0.59988,0 0.64351,0.0752 0.48708,0.84011 -0.17007,0.83152 -0.81633,1.38358 -0.8233,0.70329 z m -136.448363,-1.31163 c -0.436031,-0.43603 0.0589,-1.2901 0.747612,-1.2901 0.429853,0 0.520674,0.14519 0.45371,0.72534 -0.09043,0.78348 -0.697307,1.06878 -1.201322,0.56476 z m 42.789478,-0.0995 c -0.262781,-0.31663 -0.262781,-0.47711 0,-0.79375 0.181158,-0.21828 0.478814,-0.39687 0.661459,-0.39687 0.182644,0 0.4803,0.17859 0.661458,0.39687 0.262781,0.31664 0.262781,0.47712 0,0.79375 -0.181158,0.21828 -0.478814,0.39688 -0.661458,0.39688 -0.182645,0 -0.480301,-0.1786 -0.661459,-0.39688 z m 26.296935,0.0196 c -0.245573,-0.63995 0.08419,-1.21018 0.699837,-1.21018 0.449053,0 0.539056,0.13851 0.471323,0.72534 -0.09392,0.81369 -0.914593,1.15344 -1.17116,0.48484 z m 41.532081,-0.0196 c -0.233736,-0.6091 0.09445,-1.19062 0.671936,-1.19062 0.536982,0 0.980215,0.84944 0.689054,1.32055 -0.251775,0.40738 -1.189146,0.31789 -1.36099,-0.12993 z m -205.505441,-6.28054 c -0.0794,-0.30353 -0.0231,-0.77837 0.12503,-1.05519 0.16198,-0.30265 0.17441,-0.62841 0.0312,-0.81712 -0.13101,-0.1726 -0.22119,-0.90253 -0.20042,-1.62207 0.0344,-1.19177 0.10288,-1.32568 0.76887,-1.50379 0.79533,-0.21271 1.67396,-1.0807 2.0323,-2.00771 0.12468,-0.32254 0.24204,-4.21629 0.2608,-8.65278 0.028,-6.63451 0.10114,-8.12198 0.41176,-8.379773 0.29623,-0.245849 0.48092,-0.219983 0.85655,0.119961 0.62693,0.567362 1.14192,0.552752 1.04414,-0.02963 -0.0682,-0.406381 0.11645,-0.451701 1.50976,-0.370485 0.87312,0.05089 1.61735,0.120442 1.65385,0.154548 0.0365,0.03411 -0.0379,0.619759 -0.1652,1.301459 -0.12735,0.68169 -0.1377,1.29744 -0.023,1.36834 0.34611,0.21391 0.31535,14.00233 -0.0341,15.27659 -1.14824,4.18728 -3.45223,6.33663 -7.16066,6.68004 -0.79782,0.0739 -0.99177,-0.007 -1.11089,-0.46239 z m 1.68059,-2.583 c 0,-0.14552 -0.18562,-0.26458 -0.41249,-0.26458 -0.22687,0 -0.33891,0.11906 -0.24897,0.26458 0.0899,0.14552 0.27556,0.26459 0.41249,0.26459 0.13693,0 0.24897,-0.11907 0.24897,-0.26459 z m 0,-1.5875 c 0,-0.14552 -0.11906,-0.26458 -0.26458,-0.26458 -0.14552,0 -0.26459,0.11906 -0.26459,0.26458 0,0.14552 0.11907,0.26459 0.26459,0.26459 0.14552,0 0.26458,-0.11907 0.26458,-0.26459 z m 1.85208,-0.79375 c 0,-0.14552 -0.17859,-0.26458 -0.39687,-0.26458 -0.21828,0 -0.39688,0.11906 -0.39688,0.26458 0,0.14552 0.1786,0.26459 0.39688,0.26459 0.21828,0 0.39687,-0.11907 0.39687,-0.26459 z m 4.48951,-16.33802 c -0.0151,-0.35482 -0.77552,-1.22249 -0.93323,-1.06478 -0.18238,0.18238 0.45138,1.26322 0.7407,1.26322 0.11052,0 0.19715,-0.0893 0.19253,-0.19844 z m -1.57909,-2.06402 c 0,-0.10097 -0.17859,-0.0354 -0.39687,0.14579 -0.21829,0.18116 -0.39688,0.44237 -0.39688,0.58046 0,0.1381 0.17859,0.0725 0.39688,-0.14579 0.21828,-0.21828 0.39687,-0.47948 0.39687,-0.58046 z m 10.411423,23.49122 c -0.468841,-0.29959 -0.524331,-1.79065 -0.08638,-2.321 0.298779,-0.36182 0.312845,-0.49914 0.05985,-0.58429 -0.413728,-0.13925 -0.436086,-0.59639 -0.02917,-0.59639 0.165858,0 0.44007,-0.18942 0.60936,-0.42094 0.237681,-0.32505 0.932992,-0.44418 3.052225,-0.52297 1.656387,-0.0616 2.875119,0.006 3.074075,0.17154 0.229211,0.19023 0.485365,0.17634 0.84074,-0.0456 0.390742,-0.24402 0.716373,-0.24762 1.382818,-0.0153 0.640279,0.2232 0.965801,0.22581 1.226061,0.01 0.783489,-0.65024 1.053817,-0.0883 1.037955,2.1578 l -0.01543,2.18364 -2.62055,0.0315 c -2.298745,0.0277 -2.635567,-0.0259 -2.742837,-0.43607 -0.168485,-0.64428 -0.805257,-0.58572 -1.388441,0.12768 -0.390377,0.47754 -0.553178,0.52988 -0.822934,0.26458 -0.184954,-0.1819 -0.742093,-0.33072 -1.238088,-0.33072 -0.823767,0 -0.887794,-0.0558 -0.739863,-0.64525 0.08907,-0.35488 0.03929,-0.72105 -0.110625,-0.8137 -0.149913,-0.0927 -0.239649,-0.36784 -0.199408,-0.61153 0.101708,-0.61594 -0.690365,-0.56237 -0.809208,0.0547 -0.05273,0.27379 0.05076,0.77177 0.229971,1.10663 0.508355,0.94987 0.06092,1.7285 -0.710137,1.23579 z m 6.279783,-1.41275 c -0.233088,-0.58269 -0.254847,-0.58934 -0.270267,-0.0825 -0.0092,0.30317 0.0626,0.6306 0.159618,0.72761 0.31601,0.31601 0.369758,0.003 0.110649,-0.6451 z m 4.475461,-0.76601 c 0,-0.14552 -0.119062,-0.26458 -0.264583,-0.26458 -0.145521,0 -0.264584,0.11906 -0.264584,0.26458 0,0.14552 0.119063,0.26458 0.264584,0.26458 0.145521,0 0.264583,-0.11906 0.264583,-0.26458 z m -5.927577,2.158 c -0.09156,-0.14814 -0.03754,-0.34903 0.120031,-0.44642 0.406792,-0.25141 0.669256,0.093 0.329666,0.43255 -0.190019,0.19002 -0.338011,0.19458 -0.449697,0.0139 z m 8.11039,0.0103 -0.595313,-0.0885 v -6.72343 -6.72343 l 0.727604,-0.16488 c 0.400183,-0.0907 1.314763,-0.33108 2.032397,-0.53421 0.717638,-0.20314 1.324496,-0.36934 1.348579,-0.36934 0.02408,0 0.287197,0.21111 0.584697,0.46913 0.508156,0.44072 0.552718,0.8796 0.735836,7.24746 0.191812,6.67004 0.186325,6.78105 -0.343443,6.94919 -0.513514,0.16299 -3.2282,0.12547 -4.490357,-0.062 z m 0.992187,-12.48707 c 0,-0.14552 -0.119062,-0.26458 -0.264583,-0.26458 -0.145521,0 -0.264583,0.11906 -0.264583,0.26458 0,0.14552 0.119062,0.26458 0.264583,0.26458 0.145521,0 0.264583,-0.11906 0.264583,-0.26458 z m 21.687245,12.43011 c -0.217984,-0.13473 -0.244771,-0.99244 -0.0958,-3.06742 0.113737,-1.58422 0.193368,-3.23759 0.176953,-3.67415 -0.0164,-0.43656 -0.04134,-2.18576 -0.05539,-3.88711 -0.02748,-3.32812 0.03405,-3.53573 1.827556,-6.16573 0.397441,-0.58281 0.770043,-1.18149 0.828006,-1.33039 0.398179,-1.02289 2.487615,-4.30834 2.668764,-4.19639 0.122857,0.0759 0.164238,0.23375 0.09196,0.35071 -0.07228,0.11695 -0.138707,5.10935 -0.147611,11.09421 l -0.01619,10.88158 -0.7166,0.025 c -0.394132,0.0138 -1.513652,0.0546 -2.487825,0.0909 -0.974174,0.0362 -1.907394,-0.0183 -2.073822,-0.12118 z m -42.187962,-0.5189 c -0.388229,-0.42899 -0.413822,-0.59719 -0.140902,-0.92604 0.276425,-0.33307 0.255127,-0.40184 -0.124459,-0.40184 -0.371155,0 -0.42046,-0.13791 -0.26013,-0.7276 0.108803,-0.40018 0.175538,-1.08479 0.1483,-1.52136 -0.02724,-0.43656 -0.07951,-3.26429 -0.116166,-6.28385 -0.05113,-4.2122 0.0093,-5.4901 0.259683,-5.4901 0.179479,0 0.364,-0.32743 0.410046,-0.72761 0.06465,-0.56185 0.20427,-0.7068 0.612887,-0.6363 0.718596,0.12398 0.814196,0.25867 0.445381,0.62748 -0.172199,0.1722 -0.31309,0.51748 -0.31309,0.76729 0,0.24981 -0.148828,0.50626 -0.330729,0.56989 -0.238335,0.0834 -0.191176,0.27293 0.168807,0.67854 0.426568,0.48064 0.447122,0.62602 0.140714,0.99522 -0.313144,0.37731 -0.29253,0.41959 0.161922,0.33207 0.286409,-0.0552 0.521052,-0.27725 0.521429,-0.49354 3.7e-4,-0.21629 0.17897,-0.40928 0.396875,-0.42888 0.838308,-0.0754 0.902184,-0.15582 0.263899,-0.33232 -0.947076,-0.26189 -1.041501,-1.27075 -0.150638,-1.60945 0.938774,-0.35692 0.854082,-0.68407 -0.378529,-1.46219 -0.582083,-0.36745 -1.058333,-0.80947 -1.058333,-0.98227 0,-0.24068 -0.07428,-0.2399 -0.3175,0.003 -0.529362,0.52936 -0.970928,0.37705 -0.805417,-0.27782 0.08275,-0.32742 0.279965,-0.69367 0.43825,-0.81389 0.199174,-0.15127 0.17379,-0.26396 -0.08244,-0.36594 -0.27937,-0.1112 -0.215955,-0.26373 0.258407,-0.62155 l 0.628635,-0.47418 -0.755449,-0.70012 c -0.583025,-0.54033 -0.683535,-0.7713 -0.440367,-1.01196 0.242277,-0.23978 0.376168,-0.20356 0.579449,0.15675 0.145401,0.25772 0.367884,0.40461 0.494406,0.32641 0.126522,-0.0782 0.304825,-0.0212 0.396229,0.12673 0.35447,0.57355 0.701051,0.2269 0.627436,-0.62754 -0.115288,-1.338147 0.373304,-1.753827 1.974251,-1.679641 l 1.349589,0.06254 0.08232,5.423961 c 0.08625,5.68269 -0.05927,6.61458 -1.032933,6.61458 -0.316268,0 -0.484457,0.19354 -0.484457,0.55747 0,0.42319 0.111534,0.51407 0.46302,0.37728 0.254662,-0.0991 0.582084,-0.20115 0.727605,-0.22675 0.2732,-0.0481 0.483123,9.95102 0.2344,11.16501 -0.117812,0.57503 -0.229508,0.61686 -1.319104,0.49405 -1.512724,-0.17051 -1.709706,-0.37897 -0.920565,-0.97422 0.429572,-0.32402 0.57593,-0.62505 0.455937,-0.93774 -0.135679,-0.35358 -0.260014,-0.3914 -0.535361,-0.16289 -0.271897,0.22566 -0.443008,0.19599 -0.70746,-0.12265 -0.290256,-0.34974 -0.285045,-0.46494 0.03104,-0.68613 0.27247,-0.19067 0.155613,-0.21629 -0.413346,-0.0906 -1.009083,0.22288 -1.026295,0.24525 -0.682722,0.88722 0.205926,0.38478 0.205925,0.58572 -2e-6,0.71299 -0.157705,0.0975 -0.21529,0.46188 -0.127966,0.8098 0.193067,0.76924 -0.133368,0.81502 -0.772861,0.10839 z m 4.621665,-2.78059 c -0.0022,-0.14689 -0.119467,-0.44567 -0.260531,-0.66395 -0.202526,-0.31339 -0.257333,-0.25495 -0.260532,0.27781 -0.0022,0.37108 -0.15288,0.83156 -0.334781,1.0233 -0.259883,0.27394 -0.203207,0.27165 0.264583,-0.0107 0.327422,-0.19764 0.59349,-0.47954 0.591261,-0.62643 z m -0.525115,-3.57437 c 0,-0.14552 -0.119062,-0.26458 -0.264583,-0.26458 -0.145521,0 -0.264583,0.11906 -0.264583,0.26458 0,0.14552 0.119062,0.26458 0.264583,0.26458 0.145521,0 0.264583,-0.11906 0.264583,-0.26458 z m 0.529167,-1.57189 c 0,-0.13693 -0.119063,-0.32255 -0.264583,-0.41249 -0.145521,-0.0899 -0.264584,0.0221 -0.264584,0.24897 0,0.22687 0.119063,0.41249 0.264584,0.41249 0.14552,0 0.264583,-0.11203 0.264583,-0.24897 z m -2.910417,-1.61873 c 0,-0.13693 -0.119062,-0.24896 -0.264583,-0.24896 -0.145521,0 -0.264583,0.18562 -0.264583,0.41249 0,0.22687 0.119062,0.3389 0.264583,0.24896 0.145521,-0.0899 0.264583,-0.27555 0.264583,-0.41249 z m 1.322917,-0.59527 c 0,-0.63353 -0.655352,-1.27769 -1.118905,-1.09981 -0.382272,0.14669 -0.344788,0.25708 0.271564,0.79979 0.844986,0.74401 0.847341,0.74485 0.847341,0.30002 z m -1.852083,-0.57974 c 0,-0.3638 -0.119063,-0.66145 -0.264584,-0.66145 -0.145521,0 -0.264583,0.29765 -0.264583,0.66145 0,0.36381 0.119062,0.66146 0.264583,0.66146 0.145521,0 0.264584,-0.29765 0.264584,-0.66146 z m 2.491902,-3.73247 c 0.230183,-0.0883 0.418514,-0.26692 0.418514,-0.39688 0,-0.37856 -0.69888,-0.27251 -1.058333,0.1606 -0.349185,0.42075 -0.09016,0.5164 0.639819,0.23628 z m -1.698152,-3.69476 c 0,-0.31043 -0.770749,-0.90714 -1.171726,-0.90714 -0.601884,0 -0.510138,0.35695 0.179538,0.69852 0.713332,0.35329 0.992188,0.41192 0.992188,0.20862 z m 2.248958,-0.90714 c 0.08994,-0.14552 0.04446,-0.26458 -0.101062,-0.26458 -0.145521,0 -0.338168,0.11906 -0.428105,0.26458 -0.08994,0.14552 -0.04446,0.26458 0.101062,0.26458 0.145521,0 0.338168,-0.11906 0.428105,-0.26458 z m -0.782871,-2.92802 c 0.284763,-0.46076 -0.03956,-0.55834 -0.402448,-0.12108 -0.208689,0.25145 -0.228761,0.40327 -0.05332,0.40327 0.154751,0 0.359846,-0.12699 0.455766,-0.28219 z m 30.548496,15.8926 c 0,-2.82222 0.09857,-4.49791 0.264584,-4.49791 0.145521,0 0.264583,-0.13048 0.264583,-0.28996 0,-0.15947 0.684609,-1.32033 1.521354,-2.57968 0.836745,-1.25936 1.612276,-2.46833 1.723401,-2.68661 0.111127,-0.21829 0.479046,-0.87313 0.817602,-1.45521 0.338553,-0.58209 1.009396,-1.77271 1.49076,-2.64584 0.481362,-0.87312 1.189149,-2.06375 1.572858,-2.64583 l 0.697656,-1.058333 2.347894,-0.07706 c 1.291344,-0.04238 2.439694,0.01715 2.551888,0.132291 0.112197,0.115143 -0.495414,1.399982 -1.350243,2.855182 -1.93685,3.29718 -2.630741,4.26268 -3.303378,4.59642 -0.291042,0.14441 -0.380339,0.27062 -0.198438,0.28047 0.552718,0.0299 0.385474,0.48939 -0.950854,2.61223 -1.98728,3.15693 -3.450746,5.5383 -3.978407,6.47373 -1.095846,1.94269 -3.270105,5.48403 -3.367001,5.48403 -0.05734,0 -0.104259,-2.02406 -0.104259,-4.49792 z m 6.35,-10.45104 c 0,-0.25189 -0.253484,-0.39687 -0.693853,-0.39687 -0.586762,0 -0.64302,0.0613 -0.36448,0.39687 0.181158,0.21828 0.493392,0.39688 0.693854,0.39688 0.200464,0 0.364479,-0.1786 0.364479,-0.39688 z m -8.741074,13.69219 c -0.325194,-0.54571 -0.796255,-1.34938 -1.046805,-1.78594 -0.250553,-0.43656 -1.14346,-1.92484 -1.98424,-3.30729 -2.095643,-3.44574 -3.341701,-5.62857 -3.395927,-5.94893 -0.02503,-0.14783 0.12405,-0.23211 0.331271,-0.18729 0.505529,0.10934 2.978751,-0.48098 3.393546,-0.80999 0.388567,-0.30821 1.124479,0.18976 1.124479,0.7609 0,0.20046 0.09783,0.36448 0.217398,0.36448 0.119568,0 0.71488,0.86948 1.322917,1.93219 l 1.105519,1.9322 v 4.02093 c 0,2.21151 -0.107302,4.02093 -0.238448,4.02093 -0.131149,0 -0.504518,-0.44649 -0.82971,-0.99219 z m -25.03012,-7.53405 c -0.06969,-0.11276 -6.13e-4,-0.20501 0.153496,-0.20501 0.154109,0 0.280198,-0.1318 0.280198,-0.2929 0,-0.16108 -0.17738,-0.22482 -0.394178,-0.14163 -0.523937,0.20106 -0.806465,-0.92185 -0.415666,-1.65207 0.162974,-0.30452 0.211962,-0.87319 0.110162,-1.27879 -0.174195,-0.69405 -0.1604,-0.70749 0.277079,-0.27002 0.565311,0.56532 0.9886,0.59966 0.782867,0.0635 -0.131505,-0.3427 0.431856,-0.39687 4.126739,-0.39687 2.353468,0 4.49621,0.11622 4.761645,0.25828 0.391234,0.20938 0.487905,0.60621 0.51058,2.09591 0.02742,1.80102 0.01349,1.84051 -0.698439,1.98302 -1.081551,0.2165 -9.34761,0.0742 -9.494483,-0.16345 z m 8.900361,-2.58626 c 0,-0.14553 -0.0498,-0.26459 -0.110652,-0.26459 -0.06086,0 -0.300333,-0.0728 -0.532167,-0.16175 -0.308514,-0.11839 -0.377658,-0.0475 -0.257916,0.26458 0.177631,0.46291 0.900735,0.59276 0.900735,0.16176 z m 3.439583,-1.32292 c 0,-0.33796 0.17639,-0.52917 0.488159,-0.52917 0.268489,0 0.6882,-0.22104 0.932693,-0.4912 0.296183,-0.32728 0.672455,-0.44764 1.127485,-0.36065 0.411057,0.0786 0.787017,-0.0155 0.944348,-0.2364 0.208201,-0.29227 0.233122,-0.27803 0.122458,0.07 -0.09297,0.29239 0.05044,0.48648 0.433498,0.58665 0.911082,0.23825 0.197276,0.70264 -1.708113,1.11127 -2.219036,0.47589 -2.340528,0.46807 -2.340528,-0.15049 z m 5.225521,-0.94461 c -0.386853,-0.39364 -0.190741,-0.90747 0.346345,-0.90747 0.29963,0 0.471196,-0.11907 0.381259,-0.26459 -0.08994,-0.14552 -0.395406,-0.26458 -0.678823,-0.26458 -0.757121,0 -1.745546,-1.30407 -4.010866,-5.29167 -0.289343,-0.50932 -0.6427,-1.06965 -0.785241,-1.24518 -0.517575,-0.637343 0.107934,-0.871485 2.32818,-0.871485 2.60404,0 2.848647,0.163877 4.202827,2.815685 0.435321,0.85247 1.119931,2.01429 1.521354,2.58183 0.401423,0.56753 0.729861,1.17803 0.729861,1.35666 0,0.17863 0.178594,0.473 0.396875,0.65416 0.668835,0.55508 0.445151,0.99248 -0.595313,1.16406 -2.184585,0.36027 -3.648083,0.46425 -3.836458,0.27258 z m 3.098366,-1.26396 c 0.529963,-0.38752 0.397034,-0.53629 -0.717116,-0.8026 -0.736597,-0.17606 -0.857935,-0.0176 -0.567005,0.74057 0.196657,0.51248 0.638877,0.53384 1.284121,0.062 z m -8.147497,0.44468 c -0.09701,-0.097 -0.172429,-1.496 -0.167587,-3.10885 0.0087,-2.9105 0.01254,-2.92798 0.508545,-2.33331 0.901811,1.08121 2.440257,4.05561 2.294348,4.43585 -0.07856,0.20472 -0.579277,0.55458 -1.112703,0.77746 -1.086477,0.45396 -1.269921,0.48153 -1.522603,0.22885 z m -13.035088,-3.89806 c -0.07815,-0.20365 -0.104178,-1.18592 -0.05784,-2.18281 l 0.08425,-1.812533 5.291667,-0.04623 c 2.910417,-0.02543 5.500026,0.01236 5.754688,0.08398 0.391117,0.109989 0.46302,0.456146 0.46302,2.229053 v 2.09883 h -5.696844 c -4.637941,0 -5.723258,-0.0688 -5.838937,-0.37028 z m 7.831615,-2.27555 c 0,-0.14552 -0.12609,-0.26458 -0.280199,-0.26458 -0.154109,0 -0.206613,0.11906 -0.116676,0.26458 0.08994,0.14552 0.216027,0.26458 0.280199,0.26458 0.06417,0 0.116676,-0.11906 0.116676,-0.26458 z m -14.237717,-1.253734 c 0.104803,-0.544196 0.716132,-0.704304 1.273133,-0.333436 0.352778,0.234891 0.352778,0.2932 0,0.52478 -0.657618,0.4317 -1.372431,0.32427 -1.273133,-0.191344 z"
         id="path1230" />
    </g>
  </g>
</svg>
